<svg xmlns="http://www.w3.org/2000/svg" xmlns:xlink="http://www.w3.org/1999/xlink" viewBox="0 0 252.09 252.09"><defs><style>.cls-1,.cls-10,.cls-9{fill:none;stroke-miterlimit:10;}.cls-1{stroke:url(#linear-gradient);}.cls-2{fill:url(#linear-gradient-2);}.cls-3{fill:url(#linear-gradient-3);}.cls-4{fill:url(#linear-gradient-4);}.cls-5{fill:#fcd408;}.cls-6{fill:url(#linear-gradient-5);}.cls-7{fill:url(#linear-gradient-6);}.cls-8{fill:url(#linear-gradient-7);}.cls-9{stroke:#c34c27;}.cls-10{stroke:url(#linear-gradient-8);}.cls-11{fill:url(#linear-gradient-9);}</style><linearGradient id="linear-gradient" x1="24.61" y1="126.08" x2="227.55" y2="126.08" gradientUnits="userSpaceOnUse"><stop offset="0" stop-color="#f9af1e"/><stop offset="1" stop-color="#f9dd37"/></linearGradient><linearGradient id="linear-gradient-2" x1="3.03" y1="126.08" x2="249.14" y2="126.08" xlink:href="#linear-gradient"/><linearGradient id="linear-gradient-3" x1="77.21" y1="210.66" x2="174.88" y2="41.5" gradientUnits="userSpaceOnUse"><stop offset="0" stop-color="#f8a121"/><stop offset="1" stop-color="#f6ed5d"/></linearGradient><linearGradient id="linear-gradient-4" x1="1440.72" y1="1564.36" x2="1642.66" y2="1564.36" gradientTransform="translate(1690.45 -1415.61) rotate(90)" gradientUnits="userSpaceOnUse"><stop offset="0" stop-color="#f16724"/><stop offset="1" stop-color="#fcd010"/></linearGradient><linearGradient id="linear-gradient-5" x1="131.84" y1="114.72" x2="63.97" y2="232.27" gradientUnits="userSpaceOnUse"><stop offset="0.14" stop-color="#f36f24"/><stop offset="0.55" stop-color="#f68c20"/><stop offset="0.74" stop-color="#fbab1b"/><stop offset="0.97" stop-color="#fbae1b"/></linearGradient><linearGradient id="linear-gradient-6" x1="75.24" y1="124.21" x2="139.96" y2="124.21" gradientUnits="userSpaceOnUse"><stop offset="0.31" stop-color="#fbb516"/><stop offset="0.72" stop-color="#f6ec42"/></linearGradient><linearGradient id="linear-gradient-7" x1="139.96" y1="82.81" x2="177.66" y2="82.81" xlink:href="#linear-gradient-6"/><linearGradient id="linear-gradient-8" x1="166.36" y1="170.96" x2="166.36" y2="55.56" gradientUnits="userSpaceOnUse"><stop offset="0" stop-color="#c34c27"/><stop offset="0.78" stop-color="#fbb516"/></linearGradient><linearGradient id="linear-gradient-9" x1="125.8" y1="197.59" x2="125.8" y2="55.66" xlink:href="#linear-gradient-8"/></defs><g id="Layer_2" data-name="Layer 2"><g id="Layer_1-2" data-name="Layer 1"><path class="cls-1" d="M131.27,226.92l5.13-.39,5-.64,5-.89,4.88-1.13,4.79-1.36,4.69-1.59,4.58-1.81,4.48-2,4.35-2.23,4.23-2.44,4.09-2.63,4-2.81,3.82-3L194,200.8l3.51-3.34L200.8,194l3.18-3.66,3-3.82,2.81-4,2.63-4.09,2.44-4.23,2.23-4.35,2-4.48,1.81-4.58,1.59-4.69,1.36-4.79,1.13-4.88.89-5,.64-5,.39-5.13.13-5.19-.13-5.19-.39-5.12-.64-5-.89-5-1.13-4.88-1.36-4.79-1.59-4.69-1.81-4.59-2-4.47L214.86,78l-2.44-4.23-2.63-4.1-2.81-4-3-3.81-3.18-3.67-3.34-3.5L194,51.36l-3.66-3.17-3.82-3-4-2.82-4.09-2.63-4.23-2.43-4.35-2.23-4.48-2-4.58-1.81-4.69-1.59L151.3,28.3l-4.88-1.13-5-.89-5-.64-5.13-.39-5.19-.14-5.19.14-5.12.39-5,.64-5,.89-4.88,1.13-4.79,1.36-4.69,1.59L86.8,33.06l-4.47,2L78,37.31l-4.23,2.43-4.1,2.63-4,2.82-3.81,3-3.67,3.17-3.5,3.35-3.35,3.5-3.17,3.67-3,3.81-2.82,4-2.63,4.1L37.31,78l-2.23,4.35-2,4.47-1.81,4.59-1.59,4.69-1.36,4.79-1.13,4.88-.89,5-.64,5-.39,5.12-.14,5.19.14,5.19.39,5.13.64,5,.89,5,1.13,4.88,1.36,4.79,1.59,4.69,1.81,4.58,2,4.48,2.23,4.35,2.43,4.23,2.63,4.09,2.82,4,3,3.82L51.36,194l3.35,3.51,3.5,3.34L61.88,204l3.81,3,4,2.81,4.1,2.63L78,214.86l4.35,2.23,4.47,2,4.59,1.81,4.69,1.59,4.79,1.36,4.88,1.13,5,.89,5,.64,5.12.39,5.19.13Z"/><path class="cls-2" d="M249,132.41l-.48,6.24-.78,6.16-1.09,6.05-1.37,6-1.66,5.83-1.94,5.72-2.2,5.58L237,179.4l-2.72,5.31-3,5.15-3.21,5-3.43,4.82L221,204.33l-3.87,4.47-4.08,4.27-4.27,4.08L204.33,221l-4.65,3.65-4.82,3.43-5,3.21-5.15,3L179.4,237,174,239.46l-5.58,2.2-5.72,1.94-5.83,1.66-6,1.37-6.05,1.09-6.16.78-6.24.48-6.33.16-6.32-.16-6.25-.48-6.15-.78-6.06-1.09-6-1.37-5.84-1.66-5.71-1.94-5.59-2.2L72.76,237l-5.3-2.72-5.16-3-5-3.21-4.83-3.43L47.83,221l-4.46-3.87-4.28-4.08L35,208.8l-3.87-4.47-3.66-4.65-3.43-4.82-3.2-5-3-5.15-2.72-5.31L12.71,174l-2.21-5.58-1.93-5.72-1.66-5.83-1.38-6-1.08-6.05-.78-6.16-.48-6.24L3,126.08l.16-6.32.48-6.25.78-6.15,1.08-6.06,1.38-6,1.66-5.84L10.5,83.8l2.21-5.59,2.46-5.45,2.72-5.3,3-5.16,3.2-5,3.43-4.83,3.66-4.65L35,43.37l4.07-4.28L43.37,35l4.46-3.87,4.65-3.66,4.83-3.43,5-3.2,5.16-3,5.3-2.72,5.45-2.46L83.8,10.5l5.71-1.93,5.84-1.66,6-1.38,6.06-1.08,6.15-.78,6.25-.48L126.08,3l6.33.16,6.24.48,6.16.78,6.05,1.08,6,1.38,5.83,1.66,5.72,1.93L174,12.71l5.45,2.46,5.31,2.72,5.15,3,5,3.2,4.82,3.43,4.65,3.66L208.8,35l4.27,4.07,4.08,4.28L221,47.83l3.65,4.65,3.43,4.83,3.21,5,3,5.16,2.72,5.3,2.47,5.45,2.2,5.59,1.94,5.71,1.66,5.84,1.37,6,1.09,6.06.78,6.15.48,6.25.16,6.32Z"/><path class="cls-3" d="M121,223.65l-5-.38-4.88-.62-4.81-.86-4.73-1.09L97,219.38l-4.54-1.54L88,216.09l-4.33-2L79.5,212l-4.09-2.36-4-2.54-3.83-2.73-3.69-2.9-3.54-3.07L57,195.14l-3.23-3.39-3.08-3.55-2.9-3.69-2.72-3.83-2.55-4-2.35-4.09L38,168.42l-2-4.33-1.75-4.44-1.53-4.53-1.32-4.64-1.09-4.72L29.48,141l-.63-4.89-.37-4.95-.13-5,.13-5,.37-5,.63-4.88.86-4.81,1.09-4.73,1.32-4.63,1.53-4.54L36,88.08l2-4.33,2.16-4.21,2.35-4.09,2.55-4,2.72-3.83L50.67,64l3.08-3.54L57,57l3.4-3.23,3.54-3.08,3.69-2.9,3.83-2.72,4-2.55,4.09-2.35L83.71,38l4.33-2,4.43-1.75L97,32.79l4.63-1.32,4.73-1.09,4.81-.86,4.88-.63,5-.37,5-.13,5,.13,5,.37,4.89.63,4.81.86,4.72,1.09,4.64,1.32,4.53,1.53,4.44,1.75,4.33,2,4.21,2.16,4.09,2.35,4,2.55,3.83,2.72,3.7,2.9,3.54,3.08L195.1,57l3.24,3.4L201.41,64l2.9,3.69L207,71.48l2.54,4,2.36,4.09,2.15,4.21,2,4.33,1.75,4.43,1.54,4.54,1.32,4.63,1.09,4.73.86,4.81.62,4.88.38,5,.13,5-.13,5-.38,4.95-.62,4.89-.86,4.81-1.09,4.72-1.32,4.64-1.54,4.53-1.75,4.44-2,4.33-2.15,4.21-2.36,4.09-2.54,4-2.73,3.83-2.9,3.69-3.07,3.55-3.24,3.39-3.39,3.24-3.54,3.07-3.7,2.9-3.83,2.73-4,2.54L172.59,212l-4.21,2.15-4.33,2-4.44,1.75-4.53,1.54-4.64,1.32-4.72,1.09-4.81.86-4.89.62-5,.38-5,.13Z"/><path class="cls-4" d="M131.27,226.92l5.13-.39,5-.64,5-.89,4.88-1.13,4.79-1.36,4.69-1.59,4.58-1.81,4.48-2,4.35-2.23,4.23-2.44,4.09-2.63,4-2.81,3.82-3L194,200.8l3.51-3.34L200.8,194l3.18-3.66,3-3.82,2.81-4,2.63-4.09,2.44-4.23,2.23-4.35,2-4.48,1.81-4.58,1.59-4.69,1.36-4.79,1.13-4.88.89-5,.64-5,.39-5.13.13-5.19-.13-5.19-.39-5.12-.64-5-.89-5-1.13-4.88-1.36-4.79-1.59-4.69-1.81-4.59-2-4.47L214.86,78l-2.44-4.23-2.63-4.1-2.81-4-3-3.81-3.18-3.67-3.34-3.5L194,51.36l-3.66-3.17-3.82-3-4-2.82-4.09-2.63-4.23-2.43-4.35-2.23-4.48-2-4.58-1.81-4.69-1.59L151.3,28.3l-4.88-1.13-5-.89-5-.64-5.13-.39-5.19-.14-5.19.14-5.12.39-5,.64-5,.89-4.88,1.13-4.79,1.36-4.69,1.59L86.8,33.06l-4.47,2L78,37.31l-4.23,2.43-4.1,2.63-4,2.82-3.81,3-3.67,3.17-3.5,3.35-3.35,3.5-3.17,3.67-3,3.81-2.82,4-2.63,4.1L37.31,78l-2.23,4.35-2,4.47-1.81,4.59-1.59,4.69-1.36,4.79-1.13,4.88-.89,5-.64,5-.39,5.12-.14,5.19.14,5.19.39,5.13.64,5,.89,5,1.13,4.88,1.36,4.79,1.59,4.69,1.81,4.58,2,4.48,2.23,4.35,2.43,4.23,2.63,4.09,2.82,4,3,3.82L51.36,194l3.35,3.51,3.5,3.34L61.88,204l3.81,3,4,2.81,4.1,2.63L78,214.86l4.35,2.23,4.47,2,4.59,1.81,4.69,1.59,4.79,1.36,4.88,1.13,5,.89,5,.64,5.12.39,5.19.13Zm-10.21-3.27-5-.38-4.88-.62-4.81-.86-4.73-1.09-4.63-1.32-4.54-1.54-4.43-1.75-4.33-2L79.54,212l-4.09-2.36-4-2.54-3.83-2.73L64,201.45l-3.54-3.07L57,195.14l-3.23-3.39-3.08-3.55-2.9-3.69-2.72-3.83-2.55-4-2.35-4.09L38,168.42l-2-4.33-1.75-4.44-1.53-4.53-1.32-4.64-1.09-4.72L29.52,141l-.63-4.89-.37-4.95-.13-5,.13-5,.37-5,.63-4.88.86-4.81,1.09-4.73,1.32-4.63,1.53-4.54,1.75-4.43,2-4.33,2.16-4.21,2.35-4.09,2.55-4,2.72-3.83L50.71,64l3.08-3.54L57,57l3.4-3.23L64,50.71l3.69-2.9,3.83-2.72,4-2.55,4.09-2.35L83.75,38l4.33-2,4.43-1.75,4.54-1.53,4.63-1.32,4.73-1.09,4.81-.86,4.88-.63,5-.37,5-.13,5,.13,4.95.37,4.89.63,4.81.86,4.72,1.09,4.64,1.32,4.53,1.53,4.44,1.75,4.33,2,4.21,2.16,4.09,2.35,4,2.55,3.83,2.72,3.69,2.9,3.55,3.08L195.14,57l3.24,3.4L201.45,64l2.9,3.69,2.73,3.83,2.54,4L212,79.54l2.15,4.21,2,4.33,1.75,4.43,1.54,4.54,1.32,4.63,1.09,4.73.86,4.81.62,4.88.38,5,.13,5-.13,5-.38,4.95-.62,4.89-.86,4.81-1.09,4.72-1.32,4.64-1.54,4.53-1.75,4.44-2,4.33L212,172.63l-2.36,4.09-2.54,4-2.73,3.83-2.9,3.69-3.07,3.55-3.24,3.39-3.39,3.24-3.55,3.07-3.69,2.9-3.83,2.73-4,2.54L172.63,212l-4.21,2.15-4.33,2-4.44,1.75-4.53,1.54-4.64,1.32-4.72,1.09-4.81.86-4.89.62-4.95.38-5,.13Z"/><path class="cls-5" d="M251.92,119.56l-.49-6.39-.8-6.31-1.11-6.2-1.41-6.1-1.7-6-2-5.86L242.17,77l-2.52-5.58L236.86,66l-3-5.28-3.28-5.11L227,50.66l-3.75-4.77-4-4.57-4.17-4.38-4.38-4.17-4.58-4-4.76-3.74-4.94-3.52-5.12-3.28-5.28-3-5.43-2.79-5.58-2.53-5.72-2.25-5.86-2-6-1.7-6.09-1.41-6.21-1.11-6.3-.8-6.4-.49L126,0l-6.48.16-6.39.49-6.31.8-6.2,1.11L94.56,4l-6,1.7-5.86,2L77,9.91l-5.58,2.53L66,15.23l-5.28,3L55.6,21.54l-4.94,3.52L45.89,28.8l-4.57,4-4.38,4.17-4.17,4.38-4,4.57-3.74,4.77L21.54,55.6l-3.28,5.11-3,5.28-2.79,5.44L9.91,77,7.66,82.73l-2,5.86-1.7,6-1.41,6.1-1.11,6.2-.8,6.31-.49,6.39L0,126l.16,6.48.49,6.4.8,6.3,1.11,6.21L4,157.52l1.7,6,2,5.86,2.25,5.72,2.53,5.58,2.79,5.43,3,5.28,3.28,5.12,3.52,4.94,3.74,4.76,4,4.58,4.17,4.38,4.38,4.17,4.57,4L50.66,227l4.94,3.51,5.11,3.28,5.28,3,5.44,2.79L77,242.17l5.72,2.26,5.86,2,6,1.7,6.1,1.41,6.2,1.11,6.31.8,6.39.49,6.48.17,6.48-.17,6.4-.49,6.3-.8,6.21-1.11,6.09-1.41,6-1.7,5.86-2,5.72-2.26,5.58-2.52,5.43-2.79,5.28-3,5.12-3.28,4.94-3.51,4.76-3.75,4.58-4,4.38-4.17,4.17-4.38,4-4.58,3.75-4.76,3.51-4.94,3.28-5.12,3-5.28,2.79-5.43,2.52-5.58,2.26-5.72,2-5.86,1.7-6,1.41-6.09,1.11-6.21.8-6.3.49-6.4.17-6.48ZM249,132.41l-.48,6.24-.78,6.16-1.09,6.05-1.37,6-1.66,5.83-1.94,5.72-2.2,5.58L237,179.4l-2.72,5.31-3,5.15-3.21,5-3.43,4.82L221,204.33l-3.87,4.47-4.08,4.27-4.27,4.08L204.33,221l-4.65,3.65-4.82,3.43-5,3.21-5.15,3L179.4,237,174,239.46l-5.58,2.2-5.72,1.94-5.83,1.66-6,1.37-6.05,1.09-6.16.78-6.24.48-6.33.16-6.32-.16-6.25-.48-6.15-.78-6.06-1.09-6-1.37-5.84-1.66-5.71-1.94-5.59-2.2L72.76,237l-5.3-2.72-5.16-3-5-3.21-4.83-3.43L47.83,221l-4.46-3.87-4.28-4.08L35,208.8l-3.87-4.47-3.66-4.65-3.43-4.82-3.2-5-3-5.15-2.72-5.31L12.71,174l-2.21-5.58-1.93-5.72-1.66-5.83-1.38-6-1.08-6.05-.78-6.16-.48-6.24L3,126.08l.16-6.32.48-6.25.78-6.15,1.08-6.06,1.38-6,1.66-5.84L10.5,83.8l2.21-5.59,2.46-5.45,2.72-5.3,3-5.16,3.2-5,3.43-4.83,3.66-4.65L35,43.37l4.07-4.28L43.37,35l4.46-3.87,4.65-3.66,4.83-3.43,5-3.2,5.16-3,5.3-2.72,5.45-2.46L83.8,10.5l5.71-1.93,5.84-1.66,6-1.38,6.06-1.08,6.15-.78,6.25-.48L126.08,3l6.33.16,6.24.48,6.16.78,6.05,1.08,6,1.38,5.83,1.66,5.72,1.93L174,12.71l5.45,2.46,5.31,2.72,5.15,3,5,3.2,4.82,3.43,4.65,3.66L208.8,35l4.27,4.07,4.08,4.28L221,47.83l3.65,4.65,3.43,4.83,3.21,5,3,5.16,2.72,5.3,2.47,5.45,2.2,5.59,1.94,5.71,1.66,5.84,1.37,6,1.09,6.06.78,6.15.48,6.25.16,6.32Z"/><g id="POLYLINE"><polygon class="cls-6" points="188.54 205.39 185.26 207.87 181.89 210.22 178.41 212.43 174.84 214.5 171.18 216.42 167.44 218.2 163.61 219.83 159.7 221.31 155.72 222.62 151.67 223.77 147.55 224.76 143.37 225.57 139.13 226.22 134.83 226.68 130.48 226.96 126.08 227.05 120.89 226.92 115.77 226.53 110.72 225.89 105.75 225 100.87 223.87 96.08 222.51 91.39 220.92 86.8 219.11 82.33 217.09 77.98 214.85 73.75 212.42 69.65 209.79 65.69 206.98 61.88 203.98 58.21 200.8 54.71 197.46 51.36 193.95 48.19 190.29 45.19 186.47 42.37 182.51 39.74 178.42 37.31 174.19 35.08 169.84 33.06 165.36 31.25 160.78 29.66 156.09 28.3 151.3 27.17 146.42 26.28 141.45 25.64 136.4 25.25 131.27 25.11 126.08 25.26 120.64 25.69 115.27 26.39 109.99 27.37 104.79 28.61 99.69 30.1 94.7 31.84 89.81 33.82 85.05 32.3 80.81 30.63 75.44 29.28 69.98 28.21 64.44 27.35 58.86 26.96 56.34 26.46 53.88 23.77 57.74 21.23 61.7 18.83 65.77 16.59 69.93 14.5 74.19 12.57 78.53 10.81 82.97 9.22 87.48 7.8 92.07 6.56 96.74 5.5 101.48 4.62 106.28 3.93 111.15 3.43 116.07 3.13 121.05 3.03 126.08 3.19 132.41 3.67 138.65 4.45 144.81 5.53 150.87 6.91 156.81 8.57 162.65 10.5 168.37 12.71 173.96 15.17 179.41 17.89 184.71 20.86 189.86 24.06 194.86 27.49 199.68 31.15 204.33 35.02 208.8 39.09 213.07 43.37 217.15 47.84 221.02 52.48 224.67 57.31 228.1 62.3 231.31 67.46 234.27 72.76 236.99 78.21 239.46 83.8 241.66 89.51 243.6 95.35 245.26 101.3 246.63 107.36 247.72 113.51 248.5 119.76 248.98 126.08 249.14 133.32 248.93 140.46 248.3 147.47 247.28 154.34 245.87 161.08 244.08 167.65 241.92 174.06 239.41 180.29 236.56 186.33 233.38 192.16 229.88 197.78 226.07 203.17 221.96 208.33 217.57 213.23 212.91 217.88 207.99 222.25 202.82 216.59 203.37 205.38 204.48 194.15 205.19 188.54 205.39"/></g><g id="POLYLINE-2" data-name="POLYLINE"><polygon class="cls-7" points="99.11 78.01 98.28 79.43 97.52 80.88 96.81 82.36 96.17 83.86 95.59 85.39 95.07 86.95 94.62 88.52 94.23 90.11 75.24 178.18 93.66 94.85 94.05 93.26 94.5 91.69 95.02 90.14 95.6 88.6 96.24 87.1 96.95 85.62 97.71 84.17 98.54 82.75 99.12 81.86 99.76 81.02 100.45 80.22 101.19 79.47 101.97 78.77 102.79 78.13 103.65 77.53 104.54 77 105.47 76.53 106.42 76.11 107.41 75.76 108.41 75.47 109.44 75.25 110.48 75.09 111.54 75 112.61 74.98 118.85 75.08 138.73 120.26 139.96 114.7 120.44 70.42 113.17 70.24 112.11 70.26 111.05 70.35 110 70.5 108.98 70.73 107.97 71.02 106.99 71.37 106.04 71.79 105.11 72.26 104.22 72.79 103.36 73.38 102.54 74.03 101.76 74.72 101.02 75.47 100.33 76.27 99.69 77.12 99.11 78.01"/></g><g id="POLYLINE-3" data-name="POLYLINE"><polygon class="cls-8" points="176.82 55.68 168.38 55.66 165.5 55.73 164.08 55.86 162.68 56.07 162 56.21 161.33 56.37 160.67 56.57 160.03 56.8 159.4 57.05 158.79 57.35 158.2 57.68 157.63 58.06 156.93 58.58 156.25 59.13 155.6 59.73 154.98 60.35 154.39 61 153.82 61.68 153.29 62.39 152.78 63.13 152.31 63.89 151.87 64.67 151.47 65.48 151.1 66.31 150.76 67.15 150.46 68.02 150.2 68.9 149.97 69.79 139.96 114.7 150.14 65.45 150.37 64.55 150.64 63.66 150.96 62.77 151.32 61.9 151.73 61.04 152.17 60.2 152.64 59.38 153.15 58.59 153.69 57.81 154.26 57.07 154.86 56.35 155.49 55.67 156.13 55.02 156.81 54.41 157.49 53.84 158.2 53.31 158.77 52.94 159.36 52.61 159.97 52.31 160.6 52.05 161.24 51.83 161.9 51.63 162.57 51.46 163.25 51.32 164.64 51.12 166.07 50.99 168.95 50.92 177.66 50.94 177.29 53.31 176.82 55.68"/></g><polyline class="cls-5" points="248.98 132.41 248.5 138.65 247.72 144.81"/><g id="POLYLINE-4" data-name="POLYLINE"><line class="cls-9" x1="113.42" y1="124.7" x2="95.9" y2="197.54"/><line class="cls-10" x1="176.83" y1="55.65" x2="155.89" y2="170.87"/></g><g id="POLYLINE-5" data-name="POLYLINE"><polygon class="cls-11" points="75.24 178.18 93.66 94.85 94.05 93.26 94.5 91.69 95.01 90.14 95.59 88.62 96.23 87.12 96.93 85.64 97.7 84.2 98.52 82.78 98.55 82.73 99.14 81.83 99.78 80.99 100.47 80.19 101.2 79.44 101.98 78.75 102.8 78.11 103.66 77.52 104.55 76.99 105.48 76.52 106.43 76.1 107.41 75.75 108.41 75.47 109.44 75.24 110.48 75.09 111.54 75 112.61 74.98 118.85 75.08 138.73 120.26 149.97 69.79 150.2 68.9 150.46 68.02 150.76 67.15 151.1 66.31 151.47 65.48 151.87 64.67 152.31 63.89 152.78 63.13 153.29 62.39 153.82 61.68 154.39 61 154.98 60.35 155.6 59.73 156.25 59.13 156.93 58.58 157.63 58.06 158.2 57.68 158.79 57.35 159.4 57.05 160.03 56.8 160.67 56.57 161.33 56.37 162 56.21 162.68 56.07 164.08 55.86 165.5 55.73 168.38 55.66 176.82 55.68 155.89 170.9 147.32 170.34 146.04 170.21 144.78 170.02 143.53 169.77 142.31 169.46 141.1 169.09 139.93 168.66 138.78 168.16 137.67 167.6 136.91 167.16 136.18 166.69 135.47 166.18 134.78 165.64 134.12 165.07 133.49 164.47 132.87 163.84 132.29 163.19 131.72 162.5 131.19 161.8 130.67 161.08 130.18 160.33 129.28 158.79 128.46 157.19 113.49 124.75 95.97 197.59 88.78 197.41 88.05 197.37 87.32 197.3 86.6 197.2 85.88 197.06 85.18 196.9 84.48 196.7 83.81 196.47 83.14 196.21 82.5 195.92 81.87 195.59 81.27 195.23 80.69 194.83 80.13 194.41 79.59 193.95 79.09 193.45 78.61 192.92 78.15 192.35 77.72 191.75 77.31 191.14 76.93 190.51 76.58 189.86 76.26 189.2 75.97 188.52 75.71 187.83 75.48 187.13 75.28 186.42 75.11 185.69 74.98 184.96 74.88 184.21 74.81 183.46 74.78 182.71 74.78 181.94 74.78 181.92 74.83 180.98 74.92 180.04 75.06 179.11 75.24 178.18"/></g></g></g></svg>