<?xml version="1.0" standalone="no"?>
<!DOCTYPE svg PUBLIC "-//W3C//DTD SVG 20010904//EN"
 "http://www.w3.org/TR/2001/REC-SVG-20010904/DTD/svg10.dtd">
<svg version="1.0" xmlns="http://www.w3.org/2000/svg"
 width="262.000000pt" height="260.000000pt" viewBox="0 0 262.000000 260.000000"
 preserveAspectRatio="xMidYMid meet">

<g transform="translate(0.000000,260.000000) scale(0.100000,-0.100000)"
fill="#000000" stroke="none">
<path d="M1152 2569 c-142 -17 -288 -62 -426 -132 -361 -184 -609 -518 -687
-927 -19 -97 -17 -347 4 -451 80 -403 338 -740 705 -919 87 -42 238 -92 342
-112 101 -19 368 -16 470 5 272 58 499 181 686 372 416 428 482 1076 160 1580
-266 416 -752 642 -1254 584z m337 -274 c333 -54 615 -261 763 -560 255 -513
36 -1131 -488 -1376 -325 -153 -726 -124 -1017 73 -237 161 -396 410 -442 691
-44 269 24 549 184 764 238 320 609 471 1000 408z"/>
<path d="M1205 2254 c-339 -54 -617 -249 -760 -534 -278 -557 28 -1230 630
-1386 563 -146 1120 213 1220 785 87 492 -230 979 -720 1107 -98 26 -291 40
-370 28z m611 -229 c4 -9 -7 -93 -24 -188 -17 -95 -34 -197 -37 -227 -8 -66
-61 -387 -74 -450 -5 -25 -17 -88 -26 -140 -9 -52 -21 -114 -27 -137 l-11 -43
-63 0 c-34 0 -74 4 -88 10 -42 15 -106 81 -128 129 -12 25 -44 96 -73 156 -29
61 -56 121 -60 135 -7 23 -9 20 -20 -25 -7 -27 -42 -180 -79 -339 -37 -159
-72 -300 -77 -313 -7 -20 -15 -23 -62 -23 -60 0 -104 23 -141 73 -26 36 -27
114 -2 207 10 36 24 99 31 140 8 41 26 125 40 185 14 61 32 144 40 185 39 202
72 339 90 375 12 25 41 54 74 77 46 32 62 38 108 38 l53 0 17 -42 c9 -24 36
-81 59 -128 68 -137 92 -192 105 -240 l12 -45 14 55 c19 77 41 186 63 315 29
168 59 224 140 259 48 21 139 21 146 1z"/>
</g>
</svg>
