<?xml version="1.0" standalone="no"?>
<!DOCTYPE svg PUBLIC "-//W3C//DTD SVG 20010904//EN"
 "http://www.w3.org/TR/2001/REC-SVG-20010904/DTD/svg10.dtd">
<svg version="1.0" xmlns="http://www.w3.org/2000/svg"
 width="900.000000pt" height="849.000000pt" viewBox="0 0 900.000000 849.000000"
 preserveAspectRatio="xMidYMid meet">
<metadata>
Created by potrace 1.10, written by Peter Selinger 2001-2011
</metadata>
<g transform="translate(0.000000,849.000000) scale(0.100000,-0.100000)"
fill="#fdcf2b" stroke="none">
<path d="M0 4245 l0 -4245 4500 0 4500 0 0 4245 0 4245 -4500 0 -4500 0 0
-4245z m4621 3720 c21 -12 56 -16 122 -15 51 1 105 -3 120 -9 16 -6 63 -11
106 -11 58 0 82 -4 91 -15 7 -9 29 -15 52 -15 21 0 50 -7 63 -16 15 -10 34
-14 48 -10 14 3 32 -1 43 -9 10 -8 41 -15 67 -15 33 0 49 -5 53 -15 4 -9 19
-15 39 -15 18 0 38 -7 45 -15 7 -8 23 -15 37 -15 13 0 48 -13 78 -30 30 -16
65 -30 78 -30 14 0 30 -7 37 -15 7 -8 26 -15 42 -15 16 0 36 -7 44 -15 9 -8
24 -15 33 -15 10 0 24 -7 31 -15 7 -8 16 -15 21 -15 17 0 298 -141 309 -155 7
-8 33 -24 58 -36 26 -12 62 -35 80 -51 18 -15 38 -28 45 -28 7 0 31 -18 52
-40 21 -22 46 -40 55 -40 9 0 29 -14 46 -31 16 -17 45 -39 64 -49 19 -10 68
-53 109 -94 41 -42 79 -76 86 -76 18 0 245 -223 245 -240 0 -9 32 -47 70 -85
39 -38 70 -76 70 -84 0 -8 26 -42 58 -75 31 -34 66 -77 77 -96 37 -63 42 -71
63 -93 11 -12 30 -45 42 -74 12 -28 30 -59 41 -69 10 -9 19 -22 19 -29 0 -6
14 -27 30 -45 18 -20 30 -45 30 -61 0 -14 7 -32 15 -39 8 -7 15 -20 15 -30 0
-10 7 -23 15 -30 8 -7 15 -20 15 -30 0 -10 7 -23 15 -30 8 -7 15 -21 15 -31 0
-10 4 -20 8 -23 14 -8 72 -131 72 -152 0 -11 7 -28 15 -38 8 -11 15 -30 15
-41 0 -12 11 -43 25 -69 14 -26 25 -55 25 -65 0 -10 7 -32 15 -47 8 -16 15
-46 15 -66 0 -21 5 -38 10 -38 6 0 10 -19 10 -43 0 -24 7 -52 15 -63 8 -10 15
-37 15 -59 0 -22 7 -49 15 -59 10 -14 15 -45 15 -102 0 -60 4 -85 15 -94 11
-9 15 -36 15 -109 1 -68 5 -102 15 -115 22 -30 22 -558 0 -576 -12 -10 -15
-36 -15 -115 0 -82 -3 -104 -15 -109 -12 -4 -15 -25 -15 -93 -1 -62 -5 -94
-15 -107 -8 -11 -15 -34 -15 -52 0 -17 -7 -45 -15 -60 -8 -16 -15 -46 -15 -66
0 -21 -4 -38 -10 -38 -5 0 -10 -17 -10 -37 0 -21 -7 -51 -15 -67 -8 -15 -15
-37 -15 -47 0 -10 -11 -39 -25 -65 -14 -26 -25 -59 -25 -74 0 -15 -7 -33 -15
-40 -8 -7 -15 -22 -15 -33 0 -22 -87 -204 -101 -213 -5 -3 -9 -13 -9 -23 0
-10 -7 -24 -15 -31 -8 -7 -15 -20 -15 -30 0 -10 -7 -23 -15 -30 -8 -7 -15 -27
-15 -44 0 -20 -9 -39 -25 -55 -14 -13 -35 -45 -46 -72 -12 -26 -29 -55 -40
-65 -10 -9 -19 -23 -19 -30 0 -7 -13 -29 -30 -47 -16 -19 -30 -40 -30 -47 0
-12 -18 -37 -97 -130 -24 -28 -43 -56 -43 -63 0 -7 -38 -50 -85 -97 -47 -47
-85 -91 -85 -100 0 -20 -250 -270 -270 -270 -9 0 -47 -31 -85 -70 -38 -38 -75
-70 -82 -70 -8 0 -33 -18 -57 -40 -24 -22 -49 -40 -56 -40 -7 0 -34 -19 -60
-42 -63 -57 -120 -98 -135 -98 -7 0 -18 -7 -25 -15 -7 -8 -20 -15 -29 -15 -10
0 -30 -14 -46 -30 -16 -16 -36 -30 -46 -30 -9 0 -19 -7 -23 -15 -3 -8 -17 -15
-31 -15 -14 0 -25 -4 -25 -9 0 -5 -10 -13 -22 -16 -13 -4 -81 -36 -151 -71
-71 -35 -137 -64 -146 -64 -10 0 -39 -11 -65 -25 -26 -14 -58 -25 -70 -25 -13
0 -29 -7 -36 -15 -7 -8 -27 -15 -45 -15 -20 0 -35 -6 -39 -15 -3 -10 -19 -15
-45 -15 -25 0 -41 -5 -45 -15 -4 -11 -20 -15 -54 -15 -32 0 -54 -5 -62 -15 -7
-9 -29 -15 -52 -15 -21 0 -50 -7 -63 -16 -15 -10 -34 -14 -48 -10 -14 3 -32
-1 -43 -9 -12 -9 -44 -15 -84 -15 -37 0 -76 -7 -90 -15 -17 -10 -58 -14 -131
-15 -82 0 -109 -3 -119 -15 -18 -22 -545 -22 -574 0 -15 11 -48 15 -125 15
-73 1 -114 5 -131 15 -14 8 -52 14 -85 15 -34 0 -66 5 -71 10 -6 6 -38 12 -73
14 -34 2 -67 8 -74 15 -6 6 -20 11 -32 11 -12 0 -30 7 -41 15 -10 8 -38 15
-60 15 -24 0 -47 6 -54 15 -7 8 -27 15 -45 15 -18 0 -38 7 -45 15 -7 8 -27 15
-45 15 -18 0 -38 7 -45 15 -7 8 -23 15 -35 15 -13 0 -36 6 -52 14 -15 8 -47
20 -71 27 -23 7 -47 18 -53 26 -6 7 -19 13 -29 13 -10 0 -23 7 -30 15 -7 8
-18 15 -24 15 -6 0 -48 18 -94 40 -46 22 -91 40 -101 40 -9 0 -28 11 -41 25
-13 14 -31 25 -40 25 -9 0 -29 14 -45 30 -16 17 -36 30 -46 30 -9 0 -22 7 -29
15 -7 8 -19 15 -27 15 -8 0 -27 12 -42 26 -15 14 -36 31 -47 37 -11 7 -35 21
-54 32 -18 11 -52 37 -75 57 -23 21 -49 38 -56 38 -8 0 -46 32 -84 70 -38 39
-75 70 -81 70 -18 0 -334 312 -334 329 0 9 -29 46 -65 81 -36 35 -65 70 -65
78 0 7 -20 35 -45 61 -25 26 -45 54 -45 62 -1 8 -14 25 -30 39 -17 13 -30 32
-30 42 0 9 -14 31 -30 48 -17 17 -30 35 -30 40 0 6 -13 29 -30 52 -16 22 -30
46 -30 53 0 7 -13 30 -29 52 -16 22 -32 49 -35 61 -4 12 -12 22 -17 22 -5 0
-9 9 -9 19 0 11 -7 26 -15 35 -8 8 -15 24 -15 35 0 19 -92 207 -110 225 -6 6
-10 24 -10 42 0 19 -6 34 -15 38 -9 3 -15 18 -15 34 0 16 -11 50 -25 76 -14
26 -25 64 -25 84 0 20 -7 46 -15 56 -8 11 -15 32 -15 47 0 15 -4 31 -10 34 -5
3 -10 23 -10 43 -1 20 -7 48 -15 62 -8 14 -15 48 -15 75 0 28 -7 59 -15 69
-10 13 -15 43 -15 86 0 36 -5 71 -11 77 -7 7 -11 51 -10 121 2 87 -1 111 -14
122 -23 19 -23 521 0 540 13 11 16 35 14 122 -1 70 3 114 10 121 6 6 11 38 11
71 0 35 7 73 15 90 8 15 15 49 15 75 0 26 7 56 15 67 8 10 15 31 15 46 0 15 5
30 10 33 6 3 10 23 10 43 0 20 7 50 15 66 8 15 15 36 15 46 0 10 7 31 15 46 8
16 15 39 15 52 0 12 5 22 10 22 6 0 10 15 10 34 0 18 7 39 15 46 8 7 15 23 15
35 0 21 91 209 111 230 5 5 9 17 9 26 0 9 7 19 15 23 10 3 15 19 15 46 0 22 4
40 9 40 5 0 13 10 16 23 4 12 15 31 25 42 10 11 31 46 46 78 15 33 33 61 41
64 7 3 13 13 13 22 0 10 13 31 30 47 16 16 30 36 30 45 0 8 14 28 30 44 17 16
30 36 30 45 0 9 14 29 31 46 17 16 42 45 54 65 13 20 55 69 94 110 39 41 71
78 71 84 0 14 263 275 277 275 7 0 43 32 79 70 37 39 74 70 82 70 8 0 34 18
58 40 24 22 49 40 57 40 7 0 31 18 52 40 21 22 45 40 52 40 7 0 28 14 46 30
19 17 41 30 50 30 8 0 17 7 21 15 3 8 16 15 28 15 13 1 34 14 48 30 14 17 34
30 47 30 13 0 23 4 23 9 0 5 10 13 22 17 19 6 218 101 258 124 57 31 125 60
145 60 12 0 28 7 35 15 7 8 27 15 45 15 20 0 35 6 39 15 3 10 19 15 45 15 25
0 41 5 45 15 3 9 18 15 39 15 19 0 40 7 47 15 7 9 29 15 54 15 23 0 47 5 54
12 6 6 29 11 51 10 24 -1 43 4 51 13 7 9 29 15 54 15 23 0 51 7 62 15 12 9 43
14 82 15 35 0 73 5 84 11 12 6 68 11 132 10 80 0 118 3 136 14 38 22 498 22
541 0z"/>
<path d="M4096 7225 c-14 -11 -47 -15 -115 -15 -69 -1 -102 -5 -115 -15 -12
-9 -41 -15 -71 -15 -28 0 -56 -5 -62 -11 -6 -6 -32 -11 -58 -11 -32 1 -48 -3
-52 -13 -3 -10 -19 -15 -47 -15 -23 0 -51 -7 -62 -15 -10 -8 -28 -15 -40 -15
-12 0 -46 -13 -77 -30 -31 -16 -66 -30 -78 -30 -11 0 -27 -7 -35 -15 -9 -8
-31 -15 -50 -15 -19 0 -34 -5 -34 -10 0 -6 -8 -13 -17 -17 -48 -16 -191 -89
-216 -110 -16 -12 -34 -23 -42 -23 -7 0 -18 -7 -25 -15 -7 -8 -20 -15 -29 -15
-10 0 -28 -11 -41 -25 -13 -14 -29 -25 -36 -25 -7 0 -29 -13 -47 -30 -19 -16
-40 -30 -47 -30 -6 0 -28 -18 -47 -40 -20 -22 -43 -40 -52 -40 -17 0 -451
-428 -451 -445 0 -6 -18 -29 -40 -50 -22 -21 -40 -45 -40 -52 0 -8 -20 -36
-45 -62 -25 -26 -45 -55 -45 -63 0 -9 -7 -21 -16 -29 -9 -7 -29 -39 -45 -71
-16 -32 -39 -66 -49 -76 -11 -9 -20 -24 -20 -33 0 -9 -7 -22 -15 -29 -8 -7
-15 -20 -15 -30 0 -10 -7 -23 -15 -30 -8 -7 -15 -27 -15 -44 0 -18 -4 -36 -9
-41 -18 -18 -81 -146 -81 -165 0 -10 -4 -22 -10 -25 -5 -3 -10 -21 -10 -39 0
-19 -7 -39 -15 -46 -8 -7 -15 -24 -15 -39 0 -15 -6 -35 -14 -46 -13 -20 -22
-55 -33 -130 -3 -22 -12 -49 -19 -60 -8 -11 -14 -46 -14 -85 -1 -42 -6 -72
-16 -85 -11 -15 -14 -44 -13 -115 1 -62 -2 -95 -10 -98 -14 -5 -16 -498 -1
-507 6 -3 10 -44 10 -89 0 -62 4 -87 15 -96 11 -9 15 -33 15 -84 0 -44 5 -79
14 -91 7 -11 16 -38 19 -60 14 -92 20 -115 33 -126 8 -6 14 -26 14 -44 0 -18
7 -38 15 -45 8 -7 15 -22 15 -33 0 -39 51 -170 71 -182 5 -4 9 -21 9 -39 0
-19 7 -39 15 -46 8 -7 15 -20 15 -30 0 -10 7 -23 15 -30 8 -7 15 -20 15 -30 0
-10 7 -23 15 -30 8 -7 15 -18 15 -25 0 -7 7 -18 16 -26 9 -7 31 -43 49 -79 18
-36 40 -72 49 -79 9 -8 16 -21 16 -30 0 -10 13 -30 30 -46 16 -16 30 -35 30
-43 0 -8 18 -31 40 -52 22 -21 40 -44 40 -52 0 -7 45 -58 100 -113 55 -55 100
-107 100 -116 0 -19 31 -49 50 -49 7 0 56 -43 109 -95 54 -52 103 -95 110 -95
6 0 34 -20 60 -45 26 -25 52 -45 58 -45 5 0 20 -11 33 -25 13 -14 29 -25 36
-25 7 0 29 -14 47 -30 19 -17 41 -30 49 -30 8 0 23 -9 33 -20 17 -18 194 -110
213 -110 5 0 15 -7 22 -15 7 -8 20 -15 30 -15 10 0 23 -7 30 -15 7 -8 28 -15
47 -15 21 0 36 -6 39 -15 4 -9 19 -15 39 -15 19 0 36 -4 39 -9 8 -13 89 -51
108 -51 9 0 29 -7 44 -15 16 -8 46 -15 67 -15 20 0 37 -4 37 -10 0 -5 17 -10
38 -10 20 0 50 -7 66 -15 15 -8 49 -15 75 -15 25 -1 57 -7 71 -15 16 -9 55
-14 107 -15 45 0 85 -5 88 -10 9 -15 588 -13 602 1 7 7 41 11 87 10 52 -1 84
3 105 13 17 9 52 16 79 16 32 0 54 5 62 15 8 9 30 15 59 15 25 0 54 7 64 14 9
7 28 11 42 8 14 -2 36 3 50 12 13 9 35 16 48 16 14 0 30 7 37 15 7 8 27 15 45
15 18 0 38 7 45 15 7 8 20 15 30 15 10 0 23 7 30 15 7 8 23 15 35 15 13 0 65
23 116 50 52 28 101 53 109 56 8 3 22 10 30 15 8 5 22 12 30 15 70 29 150 78
186 113 12 12 28 21 36 21 8 0 28 13 44 30 16 16 36 30 44 30 9 0 36 20 60 45
24 25 51 45 60 45 18 0 410 390 410 407 0 7 18 33 40 58 22 25 40 50 40 55 0
5 18 27 40 50 22 23 40 50 40 61 0 11 7 22 15 25 8 4 15 14 15 23 0 10 11 27
24 40 13 12 44 66 70 119 26 53 52 104 57 112 5 8 12 22 15 30 3 8 10 22 15
30 5 8 12 22 15 30 3 8 17 36 30 61 13 26 24 57 24 70 0 13 7 33 15 43 8 11
15 32 15 48 0 15 5 28 10 28 6 0 10 13 10 28 0 16 7 37 15 48 8 10 15 31 15
45 0 14 7 34 15 45 8 10 15 36 15 57 0 21 7 45 15 53 11 11 15 37 15 88 0 53
4 77 15 86 11 9 15 32 15 79 1 42 6 73 15 85 22 29 22 543 0 572 -9 12 -14 43
-15 85 0 47 -4 70 -15 79 -11 9 -15 33 -15 90 0 57 -4 81 -15 90 -8 7 -15 29
-15 49 0 21 -7 46 -15 57 -8 10 -15 30 -15 44 0 14 -7 34 -15 44 -8 11 -15 32
-15 47 0 14 -6 32 -14 39 -8 6 -12 18 -9 25 2 8 -2 29 -11 46 -9 18 -16 38
-16 44 0 15 -53 128 -90 193 -6 9 -13 24 -16 32 -25 60 -98 197 -119 221 -14
17 -25 36 -25 43 0 7 -13 25 -30 41 -16 16 -30 34 -30 41 0 7 -18 32 -40 55
-22 23 -40 48 -40 55 0 7 -16 28 -35 47 -19 19 -35 40 -35 47 0 19 -316 336
-365 367 -22 14 -52 38 -67 54 -15 16 -34 29 -43 29 -10 0 -38 20 -63 45 -25
25 -51 45 -57 45 -7 0 -20 9 -29 19 -10 11 -43 32 -74 47 -32 15 -64 33 -73
41 -31 26 -310 163 -333 163 -13 0 -29 7 -36 15 -7 8 -27 15 -45 15 -18 0 -38
7 -45 15 -7 8 -20 15 -30 15 -10 0 -23 7 -30 15 -7 8 -24 15 -39 15 -14 0 -35
7 -45 15 -11 8 -34 15 -52 15 -17 0 -45 7 -60 15 -16 8 -46 15 -66 15 -20 0
-40 5 -43 10 -3 6 -34 10 -68 10 -35 0 -74 7 -91 15 -18 10 -57 15 -106 15
-57 0 -81 4 -90 15 -18 22 -515 22 -544 0z m574 -140 c9 -11 32 -15 79 -15 44
0 74 -5 87 -15 11 -8 42 -14 75 -15 38 0 61 -5 69 -15 7 -9 29 -15 55 -15 26
0 48 -6 55 -15 7 -8 28 -15 48 -15 39 0 90 -14 135 -36 16 -8 39 -14 52 -14
12 0 28 -7 35 -15 7 -8 21 -15 31 -15 10 0 21 -4 24 -10 3 -5 18 -10 33 -10
15 0 61 -18 102 -40 41 -22 80 -40 86 -40 6 0 17 -7 24 -15 7 -8 20 -15 29
-15 10 0 30 -13 46 -30 16 -16 36 -30 46 -30 9 0 22 -7 29 -15 7 -8 20 -15 29
-15 9 0 29 -14 45 -30 16 -17 34 -30 41 -30 6 0 26 -16 45 -35 19 -19 40 -35
47 -35 8 0 43 -27 78 -60 35 -33 70 -60 77 -60 17 0 268 -251 268 -268 0 -8
27 -42 60 -76 33 -35 60 -68 60 -74 0 -6 16 -28 36 -49 20 -21 40 -50 46 -65
5 -16 14 -28 19 -28 5 0 22 -28 38 -62 16 -35 38 -72 50 -82 11 -11 21 -28 21
-38 0 -10 7 -21 15 -24 8 -4 15 -17 15 -30 0 -14 7 -27 15 -30 8 -4 15 -12 15
-20 0 -7 20 -51 45 -97 25 -47 45 -94 45 -105 0 -11 5 -24 10 -27 6 -3 10 -21
10 -39 0 -19 7 -39 15 -46 8 -7 15 -24 15 -37 0 -14 6 -37 14 -51 22 -43 36
-96 36 -134 0 -20 7 -41 15 -48 10 -8 15 -31 15 -69 1 -33 7 -64 15 -75 10
-14 15 -45 15 -103 0 -49 4 -83 10 -83 6 0 10 -100 10 -279 0 -176 -4 -282
-10 -286 -5 -3 -10 -44 -10 -89 0 -62 -4 -87 -15 -96 -10 -8 -15 -31 -15 -69
0 -32 -6 -65 -14 -76 -7 -11 -16 -38 -19 -60 -14 -92 -20 -115 -33 -126 -8 -6
-14 -26 -14 -44 0 -18 -7 -38 -15 -45 -8 -7 -15 -22 -15 -33 0 -39 -51 -170
-71 -182 -5 -4 -9 -14 -9 -24 0 -10 -7 -24 -15 -31 -8 -7 -15 -20 -15 -30 0
-10 -7 -23 -15 -30 -8 -7 -15 -20 -15 -30 0 -10 -7 -23 -15 -30 -8 -7 -15 -20
-15 -29 0 -9 -9 -24 -20 -33 -10 -10 -33 -44 -49 -76 -16 -32 -36 -64 -45 -71
-9 -8 -16 -20 -16 -29 0 -8 -20 -37 -45 -63 -25 -26 -45 -54 -45 -62 0 -7 -16
-29 -36 -48 -20 -18 -39 -42 -43 -51 -8 -22 -321 -338 -334 -338 -5 0 -29 -18
-53 -40 -24 -22 -49 -40 -57 -40 -7 0 -31 -18 -52 -40 -21 -22 -45 -40 -52
-40 -7 0 -28 -14 -46 -30 -19 -17 -42 -30 -51 -30 -9 0 -16 -4 -16 -10 0 -5
-12 -13 -26 -16 -14 -4 -39 -20 -55 -35 -16 -16 -35 -29 -42 -29 -7 0 -56 -22
-110 -50 -54 -27 -108 -50 -121 -50 -13 0 -29 -7 -36 -15 -7 -8 -20 -15 -29
-15 -9 0 -22 -5 -28 -11 -5 -5 -25 -12 -43 -14 -19 -3 -38 -9 -44 -15 -5 -5
-19 -10 -31 -10 -12 0 -30 -7 -41 -15 -10 -8 -31 -15 -45 -15 -15 0 -32 -7
-39 -15 -8 -9 -30 -15 -60 -15 -30 0 -52 -6 -60 -15 -9 -11 -32 -15 -79 -15
-44 0 -74 -5 -87 -15 -12 -9 -44 -14 -90 -15 -54 0 -73 -4 -78 -15 -8 -22
-547 -22 -566 0 -9 11 -33 15 -92 15 -61 0 -80 3 -84 15 -5 11 -22 15 -63 15
-35 0 -65 6 -77 15 -10 8 -38 15 -60 15 -24 0 -47 6 -54 15 -7 9 -29 15 -55
15 -26 0 -48 6 -55 15 -7 8 -27 15 -45 15 -18 0 -38 7 -45 15 -7 8 -24 15 -39
15 -14 0 -46 11 -70 25 -23 14 -51 25 -60 25 -24 0 -281 127 -281 139 0 6 -11
13 -25 17 -13 3 -29 12 -36 20 -6 8 -19 14 -28 14 -10 0 -30 13 -46 30 -16 16
-35 30 -43 30 -8 0 -37 20 -63 45 -26 25 -54 45 -62 45 -7 0 -29 16 -48 36
-18 20 -52 48 -74 62 -52 33 -257 238 -278 277 -8 17 -36 50 -61 75 -25 24
-46 51 -46 60 0 9 -20 36 -45 60 -25 24 -45 51 -45 60 0 9 -14 29 -30 45 -17
16 -30 35 -30 42 0 7 -12 32 -28 55 -41 62 -72 120 -72 133 0 7 -7 18 -15 25
-8 7 -15 20 -15 30 0 10 -6 23 -13 29 -8 6 -19 30 -26 53 -16 54 -49 126 -62
133 -5 4 -9 21 -9 39 0 19 -7 39 -15 46 -8 7 -15 27 -15 45 0 18 -7 38 -15 45
-9 7 -15 30 -15 54 0 22 -7 50 -15 60 -8 11 -15 27 -15 37 0 9 -7 30 -15 45
-9 17 -15 56 -15 97 0 38 -4 67 -10 67 -6 0 -10 34 -10 83 0 58 -5 89 -15 103
-21 28 -21 530 0 558 10 13 15 43 15 87 0 37 5 71 10 74 6 3 10 32 10 64 0 40
5 63 15 71 9 7 15 30 15 54 0 22 7 50 15 60 8 11 15 36 15 57 0 20 7 42 15 49
8 7 15 23 15 35 0 13 7 25 15 29 9 3 15 18 15 39 0 19 7 40 15 47 8 7 15 23
15 35 0 27 173 376 195 395 8 7 15 18 15 24 0 7 14 28 30 46 17 18 30 39 30
45 0 7 20 32 45 57 25 25 45 54 45 63 0 9 11 26 24 36 14 11 35 36 47 57 29
49 299 322 319 322 9 0 38 23 65 50 27 28 55 50 61 50 7 0 31 18 54 40 23 22
49 40 59 40 9 0 28 13 41 30 14 16 32 29 41 30 9 0 22 7 29 15 7 8 20 15 30
15 9 0 25 9 35 20 20 22 142 90 161 90 6 0 17 7 24 15 7 8 27 15 45 15 18 0
38 6 44 13 6 8 30 19 53 26 24 7 70 26 104 42 34 16 73 29 88 29 14 0 26 5 26
10 0 6 19 10 43 10 24 0 52 7 63 15 10 8 35 15 55 15 19 0 44 7 55 15 11 8 42
14 75 15 38 0 61 5 69 15 9 11 34 15 100 15 66 0 91 4 100 15 10 13 54 15 275
15 221 0 265 -2 275 -15z"/>
<path d="M5416 6475 c-11 -8 -30 -15 -42 -15 -93 0 -314 -209 -314 -297 0 -11
-7 -26 -15 -33 -8 -7 -15 -19 -15 -27 0 -8 -7 -21 -15 -29 -9 -9 -15 -34 -15
-58 0 -27 -6 -48 -15 -56 -10 -8 -15 -31 -15 -69 -1 -34 -7 -64 -16 -76 -10
-14 -14 -40 -13 -83 1 -37 -3 -68 -9 -74 -7 -7 -12 -44 -12 -88 0 -47 -6 -86
-15 -104 -8 -15 -15 -43 -15 -60 0 -18 -7 -41 -15 -52 -9 -12 -14 -44 -15 -91
0 -39 -4 -75 -10 -78 -5 -3 -10 -30 -10 -58 0 -30 -7 -60 -15 -71 -8 -11 -15
-32 -15 -46 0 -14 -6 -32 -12 -38 -7 -7 -16 -41 -20 -75 -14 -118 -23 -160
-35 -165 -7 -2 -13 3 -13 11 0 8 -7 20 -15 27 -9 7 -15 29 -15 55 0 26 -6 48
-15 55 -8 7 -15 27 -15 45 0 18 -7 38 -15 45 -8 7 -15 27 -15 45 0 18 -7 38
-15 45 -8 7 -15 18 -15 24 0 7 -11 23 -25 36 -14 13 -25 35 -25 49 0 14 -7 35
-15 45 -8 11 -15 32 -15 46 0 15 -9 35 -20 45 -18 17 -110 194 -110 213 0 5
-7 15 -15 22 -8 7 -15 20 -15 30 0 10 -7 23 -15 30 -8 7 -15 21 -15 32 0 10
-7 21 -15 24 -10 4 -15 20 -15 44 0 22 -4 41 -9 44 -14 9 -81 145 -81 165 0
10 -8 25 -18 34 -26 24 -293 25 -312 2 -7 -8 -19 -15 -27 -15 -9 0 -31 -13
-50 -30 -18 -16 -39 -30 -46 -30 -7 0 -20 -9 -30 -20 -9 -11 -22 -20 -29 -20
-23 -1 -148 -125 -148 -147 0 -12 -7 -23 -15 -27 -9 -3 -15 -18 -15 -39 0 -23
-8 -41 -25 -57 -22 -20 -25 -32 -25 -90 0 -43 -5 -73 -15 -86 -8 -10 -15 -38
-15 -60 0 -23 -6 -47 -14 -53 -8 -7 -17 -39 -20 -74 -15 -164 -19 -187 -32
-198 -9 -7 -14 -31 -14 -66 0 -30 -6 -67 -14 -81 -25 -50 -36 -98 -36 -166 0
-50 -4 -68 -15 -72 -11 -5 -15 -24 -15 -78 -1 -46 -6 -78 -15 -90 -8 -11 -15
-39 -15 -62 0 -28 -5 -44 -15 -48 -11 -4 -15 -20 -15 -54 0 -32 -5 -54 -15
-62 -9 -7 -15 -29 -15 -54 0 -23 -7 -51 -15 -62 -8 -10 -15 -40 -15 -65 0 -26
-7 -60 -15 -75 -8 -16 -15 -53 -15 -81 0 -29 -4 -53 -10 -53 -5 0 -10 -13 -10
-28 0 -16 -7 -37 -15 -48 -9 -12 -14 -43 -15 -85 0 -41 -5 -72 -15 -85 -9 -12
-14 -44 -15 -91 0 -39 -4 -75 -10 -78 -5 -3 -10 -21 -10 -39 0 -19 -7 -47 -15
-62 -8 -16 -15 -38 -15 -49 0 -11 -7 -29 -15 -39 -9 -12 -15 -42 -15 -77 0
-32 -4 -61 -10 -64 -5 -3 -10 -30 -10 -59 0 -35 -5 -58 -15 -66 -11 -9 -15
-35 -15 -105 0 -70 4 -96 15 -105 8 -7 15 -25 15 -41 0 -16 8 -42 19 -59 25
-42 150 -170 166 -170 7 0 18 -7 25 -15 7 -8 23 -15 35 -15 13 0 25 -7 29 -15
4 -12 30 -15 144 -15 132 0 140 1 160 23 13 14 22 36 22 55 0 20 6 35 15 38 9
4 15 19 15 39 0 18 7 38 15 45 10 8 15 31 15 70 0 39 5 62 15 70 9 8 15 30 15
60 0 32 5 50 14 53 9 4 16 28 20 69 10 114 18 157 32 169 8 7 14 30 14 59 0
29 6 52 14 59 8 7 17 38 20 69 12 129 19 162 32 173 8 7 14 30 14 59 0 30 6
52 15 60 10 8 15 31 15 66 0 29 5 56 10 59 6 3 10 28 10 54 0 31 5 53 15 61 9
7 15 29 15 55 0 26 6 48 15 55 9 7 15 30 15 54 0 22 7 50 15 60 8 11 15 39 15
62 0 28 5 44 15 48 11 4 15 20 15 54 0 32 5 54 15 62 10 8 15 31 15 66 0 29 4
55 8 58 11 7 42 -58 42 -88 0 -13 7 -29 15 -36 8 -7 15 -20 15 -30 0 -10 7
-23 15 -30 8 -7 15 -19 15 -26 0 -8 4 -22 9 -32 6 -9 12 -29 15 -44 4 -15 13
-34 22 -43 26 -26 54 -86 54 -116 0 -18 10 -36 30 -52 17 -14 30 -35 30 -47 0
-11 7 -23 15 -26 9 -4 15 -19 15 -39 0 -19 4 -36 9 -39 14 -9 51 -90 51 -112
0 -11 11 -31 25 -44 14 -13 25 -34 25 -46 0 -45 45 -110 137 -201 52 -51 101
-93 108 -93 8 0 27 -13 42 -30 17 -19 36 -30 53 -30 14 0 35 -7 46 -15 15 -11
56 -14 191 -15 94 0 178 3 187 6 10 4 16 18 16 35 0 16 4 37 9 47 25 51 35 95
39 174 2 59 8 90 18 99 9 7 14 31 14 70 0 32 5 61 10 64 6 3 10 32 10 64 0 40
5 63 15 71 11 9 15 34 15 94 0 57 5 88 15 102 8 10 15 38 15 60 0 24 6 47 15
54 10 8 15 31 15 70 0 39 5 62 15 70 11 9 15 34 15 94 0 57 5 88 15 102 9 12
14 44 15 90 0 53 4 73 14 77 10 4 16 30 20 84 16 213 18 232 32 244 9 7 14 31
14 63 0 28 7 64 15 80 10 19 15 58 15 122 0 56 4 94 10 94 6 0 10 38 10 94 0
64 5 103 15 122 9 17 15 56 15 95 0 45 5 70 14 78 14 12 21 60 32 214 4 55 10
80 20 84 10 4 14 22 14 62 0 35 6 65 15 77 9 12 14 43 15 85 0 47 4 70 15 79
11 9 15 33 15 86 0 110 -7 114 -179 114 -104 -1 -141 -4 -155 -15z"/>
</g>
</svg>
