<?xml version="1.0" standalone="no"?>
<!DOCTYPE svg PUBLIC "-//W3C//DTD SVG 1.0//EN" "http://www.w3.org/TR/2001/REC-SVG-20010904/DTD/svg10.dtd">
<svg xmlns="http://www.w3.org/2000/svg" xmlns:xlink="http://www.w3.org/1999/xlink" id="body_1" width="36" height="34">

<g transform="matrix(0.04 0 0 0.04 -0 0.04)">
	<g transform="matrix(0.1 0 -0 -0.1 0 849)">
        <path d="M0 4245L0 0L4500 0L9000 0L9000 4245L9000 8490L4500 8490L0 8490L0 4245zM4621 7965C 4642 7953 4677 7949 4743 7950C 4794 7951 4848 7947 4863 7941C 4879 7935 4926 7930 4969 7930C 5027 7930 5051 7926 5060 7915C 5067 7906 5089 7900 5112 7900C 5133 7900 5162 7893 5175 7884C 5190 7874 5209 7870 5223 7874C 5237 7877 5255 7873 5266 7865C 5276 7857 5307 7850 5333 7850C 5366 7850 5382 7845 5386 7835C 5390 7826 5405 7820 5425 7820C 5443 7820 5463 7813 5470 7805C 5477 7797 5493 7790 5507 7790C 5520 7790 5555 7777 5585 7760C 5615 7744 5650 7730 5663 7730C 5677 7730 5693 7723 5700 7715C 5707 7707 5726 7700 5742 7700C 5758 7700 5778 7693 5786 7685C 5795 7677 5810 7670 5819 7670C 5829 7670 5843 7663 5850 7655C 5857 7647 5866 7640 5871 7640C 5888 7640 6169 7499 6180 7485C 6187 7477 6213 7461 6238 7449C 6264 7437 6300 7414 6318 7398C 6336 7383 6356 7370 6363 7370C 6370 7370 6394 7352 6415 7330C 6436 7308 6461 7290 6470 7290C 6479 7290 6499 7276 6516 7259C 6532 7242 6561 7220 6580 7210C 6599 7200 6648 7157 6689 7116C 6730 7074 6768 7040 6775 7040C 6793 7040 7020 6817 7020 6800C 7020 6791 7052 6753 7090 6715C 7129 6677 7160 6639 7160 6631C 7160 6623 7186 6589 7218 6556C 7249 6522 7284 6479 7295 6460C 7332 6397 7337 6389 7358 6367C 7369 6355 7388 6322 7400 6293C 7412 6265 7430 6234 7441 6224C 7451 6215 7460 6202 7460 6195C 7460 6189 7474 6168 7490 6150C 7508 6130 7520 6105 7520 6089C 7520 6075 7527 6057 7535 6050C 7543 6043 7550 6030 7550 6020C 7550 6010 7557 5997 7565 5990C 7573 5983 7580 5970 7580 5960C 7580 5950 7587 5937 7595 5930C 7603 5923 7610 5909 7610 5899C 7610 5889 7614 5879 7618 5876C 7632 5868 7690 5745 7690 5724C 7690 5713 7697 5696 7705 5686C 7713 5675 7720 5656 7720 5645C 7720 5633 7731 5602 7745 5576C 7759 5550 7770 5521 7770 5511C 7770 5501 7777 5479 7785 5464C 7793 5448 7800 5418 7800 5398C 7800 5377 7805 5360 7810 5360C 7816 5360 7820 5341 7820 5317C 7820 5293 7827 5265 7835 5254C 7843 5244 7850 5217 7850 5195C 7850 5173 7857 5146 7865 5136C 7875 5122 7880 5091 7880 5034C 7880 4974 7884 4949 7895 4940C 7906 4931 7910 4904 7910 4831C 7911 4763 7915 4729 7925 4716C 7947 4686 7947 4158 7925 4140C 7913 4130 7910 4104 7910 4025C 7910 3943 7907 3921 7895 3916C 7883 3912 7880 3891 7880 3823C 7879 3761 7875 3729 7865 3716C 7857 3705 7850 3682 7850 3664C 7850 3647 7843 3619 7835 3604C 7827 3588 7820 3558 7820 3538C 7820 3517 7816 3500 7810 3500C 7805 3500 7800 3483 7800 3463C 7800 3442 7793 3412 7785 3396C 7777 3381 7770 3359 7770 3349C 7770 3339 7759 3310 7745 3284C 7731 3258 7720 3225 7720 3210C 7720 3195 7713 3177 7705 3170C 7697 3163 7690 3148 7690 3137C 7690 3115 7603 2933 7589 2924C 7584 2921 7580 2911 7580 2901C 7580 2891 7573 2877 7565 2870C 7557 2863 7550 2850 7550 2840C 7550 2830 7543 2817 7535 2810C 7527 2803 7520 2783 7520 2766C 7520 2746 7511 2727 7495 2711C 7481 2698 7460 2666 7449 2639C 7437 2613 7420 2584 7409 2574C 7399 2565 7390 2551 7390 2544C 7390 2537 7377 2515 7360 2497C 7344 2478 7330 2457 7330 2450C 7330 2438 7312 2413 7233 2320C 7209 2292 7190 2264 7190 2257C 7190 2250 7152 2207 7105 2160C 7058 2113 7020 2069 7020 2060C 7020 2040 6770 1790 6750 1790C 6741 1790 6703 1759 6665 1720C 6627 1682 6590 1650 6583 1650C 6575 1650 6550 1632 6526 1610C 6502 1588 6477 1570 6470 1570C 6463 1570 6436 1551 6410 1528C 6347 1471 6290 1430 6275 1430C 6268 1430 6257 1423 6250 1415C 6243 1407 6230 1400 6221 1400C 6211 1400 6191 1386 6175 1370C 6159 1354 6139 1340 6129 1340C 6120 1340 6110 1333 6106 1325C 6103 1317 6089 1310 6075 1310C 6061 1310 6050 1306 6050 1301C 6050 1296 6040 1288 6028 1285C 6015 1281 5947 1249 5877 1214C 5806 1179 5740 1150 5731 1150C 5721 1150 5692 1139 5666 1125C 5640 1111 5608 1100 5596 1100C 5583 1100 5567 1093 5560 1085C 5553 1077 5533 1070 5515 1070C 5495 1070 5480 1064 5476 1055C 5473 1045 5457 1040 5431 1040C 5406 1040 5390 1035 5386 1025C 5382 1014 5366 1010 5332 1010C 5300 1010 5278 1005 5270 995C 5263 986 5241 980 5218 980C 5197 980 5168 973 5155 964C 5140 954 5121 950 5107 954C 5093 957 5075 953 5064 945C 5052 936 5020 930 4980 930C 4943 930 4904 923 4890 915C 4873 905 4832 901 4759 900C 4677 900 4650 897 4640 885C 4622 863 4095 863 4066 885C 4051 896 4018 900 3941 900C 3868 901 3827 905 3810 915C 3796 923 3758 929 3725 930C 3691 930 3659 935 3654 940C 3648 946 3616 952 3581 954C 3547 956 3514 962 3507 969C 3501 975 3487 980 3475 980C 3463 980 3445 987 3434 995C 3424 1003 3396 1010 3374 1010C 3350 1010 3327 1016 3320 1025C 3313 1033 3293 1040 3275 1040C 3257 1040 3237 1047 3230 1055C 3223 1063 3203 1070 3185 1070C 3167 1070 3147 1077 3140 1085C 3133 1093 3117 1100 3105 1100C 3092 1100 3069 1106 3053 1114C 3038 1122 3006 1134 2982 1141C 2959 1148 2935 1159 2929 1167C 2923 1174 2910 1180 2900 1180C 2890 1180 2877 1187 2870 1195C 2863 1203 2852 1210 2846 1210C 2840 1210 2798 1228 2752 1250C 2706 1272 2661 1290 2651 1290C 2642 1290 2623 1301 2610 1315C 2597 1329 2579 1340 2570 1340C 2561 1340 2541 1354 2525 1370C 2509 1387 2489 1400 2479 1400C 2470 1400 2457 1407 2450 1415C 2443 1423 2431 1430 2423 1430C 2415 1430 2396 1442 2381 1456C 2366 1470 2345 1487 2334 1493C 2323 1500 2299 1514 2280 1525C 2262 1536 2228 1562 2205 1582C 2182 1603 2156 1620 2149 1620C 2141 1620 2103 1652 2065 1690C 2027 1729 1990 1760 1984 1760C 1966 1760 1650 2072 1650 2089C 1650 2098 1621 2135 1585 2170C 1549 2205 1520 2240 1520 2248C 1520 2255 1500 2283 1475 2309C 1450 2335 1430 2363 1430 2371C 1429 2379 1416 2396 1400 2410C 1383 2423 1370 2442 1370 2452C 1370 2461 1356 2483 1340 2500C 1323 2517 1310 2535 1310 2540C 1310 2546 1297 2569 1280 2592C 1264 2614 1250 2638 1250 2645C 1250 2652 1237 2675 1221 2697C 1205 2719 1189 2746 1186 2758C 1182 2770 1174 2780 1169 2780C 1164 2780 1160 2789 1160 2799C 1160 2810 1153 2825 1145 2834C 1137 2842 1130 2858 1130 2869C 1130 2888 1038 3076 1020 3094C 1014 3100 1010 3118 1010 3136C 1010 3155 1004 3170 995 3174C 986 3177 980 3192 980 3208C 980 3224 969 3258 955 3284C 941 3310 930 3348 930 3368C 930 3388 923 3414 915 3424C 907 3435 900 3456 900 3471C 900 3486 896 3502 890 3505C 885 3508 880 3528 880 3548C 879 3568 873 3596 865 3610C 857 3624 850 3658 850 3685C 850 3713 843 3744 835 3754C 825 3767 820 3797 820 3840C 820 3876 815 3911 809 3917C 802 3924 798 3968 799 4038C 801 4125 798 4149 785 4160C 762 4179 762 4681 785 4700C 798 4711 801 4735 799 4822C 798 4892 802 4936 809 4943C 815 4949 820 4981 820 5014C 820 5049 827 5087 835 5104C 843 5119 850 5153 850 5179C 850 5205 857 5235 865 5246C 873 5256 880 5277 880 5292C 880 5307 885 5322 890 5325C 896 5328 900 5348 900 5368C 900 5388 907 5418 915 5434C 923 5449 930 5470 930 5480C 930 5490 937 5511 945 5526C 953 5542 960 5565 960 5578C 960 5590 965 5600 970 5600C 976 5600 980 5615 980 5634C 980 5652 987 5673 995 5680C 1003 5687 1010 5703 1010 5715C 1010 5736 1101 5924 1121 5945C 1126 5950 1130 5962 1130 5971C 1130 5980 1137 5990 1145 5994C 1155 5997 1160 6013 1160 6040C 1160 6062 1164 6080 1169 6080C 1174 6080 1182 6090 1185 6103C 1189 6115 1200 6134 1210 6145C 1220 6156 1241 6191 1256 6223C 1271 6256 1289 6284 1297 6287C 1304 6290 1310 6300 1310 6309C 1310 6319 1323 6340 1340 6356C 1356 6372 1370 6392 1370 6401C 1370 6409 1384 6429 1400 6445C 1417 6461 1430 6481 1430 6490C 1430 6499 1444 6519 1461 6536C 1478 6552 1503 6581 1515 6601C 1528 6621 1570 6670 1609 6711C 1648 6752 1680 6789 1680 6795C 1680 6809 1943 7070 1957 7070C 1964 7070 2000 7102 2036 7140C 2073 7179 2110 7210 2118 7210C 2126 7210 2152 7228 2176 7250C 2200 7272 2225 7290 2233 7290C 2240 7290 2264 7308 2285 7330C 2306 7352 2330 7370 2337 7370C 2344 7370 2365 7384 2383 7400C 2402 7417 2424 7430 2433 7430C 2441 7430 2450 7437 2454 7445C 2457 7453 2470 7460 2482 7460C 2495 7461 2516 7474 2530 7490C 2544 7507 2564 7520 2577 7520C 2590 7520 2600 7524 2600 7529C 2600 7534 2610 7542 2622 7546C 2641 7552 2840 7647 2880 7670C 2937 7701 3005 7730 3025 7730C 3037 7730 3053 7737 3060 7745C 3067 7753 3087 7760 3105 7760C 3125 7760 3140 7766 3144 7775C 3147 7785 3163 7790 3189 7790C 3214 7790 3230 7795 3234 7805C 3237 7814 3252 7820 3273 7820C 3292 7820 3313 7827 3320 7835C 3327 7844 3349 7850 3374 7850C 3397 7850 3421 7855 3428 7862C 3434 7868 3457 7873 3479 7872C 3503 7871 3522 7876 3530 7885C 3537 7894 3559 7900 3584 7900C 3607 7900 3635 7907 3646 7915C 3658 7924 3689 7929 3728 7930C 3763 7930 3801 7935 3812 7941C 3824 7947 3880 7952 3944 7951C 4024 7951 4062 7954 4080 7965C 4118 7987 4578 7987 4621 7965z" stroke="none" fill="#FDCF2B" fill-rule="nonzero" />
        <path d="M4096 7225C 4082 7214 4049 7210 3981 7210C 3912 7209 3879 7205 3866 7195C 3854 7186 3825 7180 3795 7180C 3767 7180 3739 7175 3733 7169C 3727 7163 3701 7158 3675 7158C 3643 7159 3627 7155 3623 7145C 3620 7135 3604 7130 3576 7130C 3553 7130 3525 7123 3514 7115C 3504 7107 3486 7100 3474 7100C 3462 7100 3428 7087 3397 7070C 3366 7054 3331 7040 3319 7040C 3308 7040 3292 7033 3284 7025C 3275 7017 3253 7010 3234 7010C 3215 7010 3200 7005 3200 7000C 3200 6994 3192 6987 3183 6983C 3135 6967 2992 6894 2967 6873C 2951 6861 2933 6850 2925 6850C 2918 6850 2907 6843 2900 6835C 2893 6827 2880 6820 2871 6820C 2861 6820 2843 6809 2830 6795C 2817 6781 2801 6770 2794 6770C 2787 6770 2765 6757 2747 6740C 2728 6724 2707 6710 2700 6710C 2694 6710 2672 6692 2653 6670C 2633 6648 2610 6630 2601 6630C 2584 6630 2150 6202 2150 6185C 2150 6179 2132 6156 2110 6135C 2088 6114 2070 6090 2070 6083C 2070 6075 2050 6047 2025 6021C 2000 5995 1980 5966 1980 5958C 1980 5949 1973 5937 1964 5929C 1955 5922 1935 5890 1919 5858C 1903 5826 1880 5792 1870 5782C 1859 5773 1850 5758 1850 5749C 1850 5740 1843 5727 1835 5720C 1827 5713 1820 5700 1820 5690C 1820 5680 1813 5667 1805 5660C 1797 5653 1790 5633 1790 5616C 1790 5598 1786 5580 1781 5575C 1763 5557 1700 5429 1700 5410C 1700 5400 1696 5388 1690 5385C 1685 5382 1680 5364 1680 5346C 1680 5327 1673 5307 1665 5300C 1657 5293 1650 5276 1650 5261C 1650 5246 1644 5226 1636 5215C 1623 5195 1614 5160 1603 5085C 1600 5063 1591 5036 1584 5025C 1576 5014 1570 4979 1570 4940C 1569 4898 1564 4868 1554 4855C 1543 4840 1540 4811 1541 4740C 1542 4678 1539 4645 1531 4642C 1517 4637 1515 4144 1530 4135C 1536 4132 1540 4091 1540 4046C 1540 3984 1544 3959 1555 3950C 1566 3941 1570 3917 1570 3866C 1570 3822 1575 3787 1584 3775C 1591 3764 1600 3737 1603 3715C 1617 3623 1623 3600 1636 3589C 1644 3583 1650 3563 1650 3545C 1650 3527 1657 3507 1665 3500C 1673 3493 1680 3478 1680 3467C 1680 3428 1731 3297 1751 3285C 1756 3281 1760 3264 1760 3246C 1760 3227 1767 3207 1775 3200C 1783 3193 1790 3180 1790 3170C 1790 3160 1797 3147 1805 3140C 1813 3133 1820 3120 1820 3110C 1820 3100 1827 3087 1835 3080C 1843 3073 1850 3062 1850 3055C 1850 3048 1857 3037 1866 3029C 1875 3022 1897 2986 1915 2950C 1933 2914 1955 2878 1964 2871C 1973 2863 1980 2850 1980 2841C 1980 2831 1993 2811 2010 2795C 2026 2779 2040 2760 2040 2752C 2040 2744 2058 2721 2080 2700C 2102 2679 2120 2656 2120 2648C 2120 2641 2165 2590 2220 2535C 2275 2480 2320 2428 2320 2419C 2320 2400 2351 2370 2370 2370C 2377 2370 2426 2327 2479 2275C 2533 2223 2582 2180 2589 2180C 2595 2180 2623 2160 2649 2135C 2675 2110 2701 2090 2707 2090C 2712 2090 2727 2079 2740 2065C 2753 2051 2769 2040 2776 2040C 2783 2040 2805 2026 2823 2010C 2842 1993 2864 1980 2872 1980C 2880 1980 2895 1971 2905 1960C 2922 1942 3099 1850 3118 1850C 3123 1850 3133 1843 3140 1835C 3147 1827 3160 1820 3170 1820C 3180 1820 3193 1813 3200 1805C 3207 1797 3228 1790 3247 1790C 3268 1790 3283 1784 3286 1775C 3290 1766 3305 1760 3325 1760C 3344 1760 3361 1756 3364 1751C 3372 1738 3453 1700 3472 1700C 3481 1700 3501 1693 3516 1685C 3532 1677 3562 1670 3583 1670C 3603 1670 3620 1666 3620 1660C 3620 1655 3637 1650 3658 1650C 3678 1650 3708 1643 3724 1635C 3739 1627 3773 1620 3799 1620C 3824 1619 3856 1613 3870 1605C 3886 1596 3925 1591 3977 1590C 4022 1590 4062 1585 4065 1580C 4074 1565 4653 1567 4667 1581C 4674 1588 4708 1592 4754 1591C 4806 1590 4838 1594 4859 1604C 4876 1613 4911 1620 4938 1620C 4970 1620 4992 1625 5000 1635C 5008 1644 5030 1650 5059 1650C 5084 1650 5113 1657 5123 1664C 5132 1671 5151 1675 5165 1672C 5179 1670 5201 1675 5215 1684C 5228 1693 5250 1700 5263 1700C 5277 1700 5293 1707 5300 1715C 5307 1723 5327 1730 5345 1730C 5363 1730 5383 1737 5390 1745C 5397 1753 5410 1760 5420 1760C 5430 1760 5443 1767 5450 1775C 5457 1783 5473 1790 5485 1790C 5498 1790 5550 1813 5601 1840C 5653 1868 5702 1893 5710 1896C 5718 1899 5732 1906 5740 1911C 5748 1916 5762 1923 5770 1926C 5840 1955 5920 2004 5956 2039C 5968 2051 5984 2060 5992 2060C 6000 2060 6020 2073 6036 2090C 6052 2106 6072 2120 6080 2120C 6089 2120 6116 2140 6140 2165C 6164 2190 6191 2210 6200 2210C 6218 2210 6610 2600 6610 2617C 6610 2624 6628 2650 6650 2675C 6672 2700 6690 2725 6690 2730C 6690 2735 6708 2757 6730 2780C 6752 2803 6770 2830 6770 2841C 6770 2852 6777 2863 6785 2866C 6793 2870 6800 2880 6800 2889C 6800 2899 6811 2916 6824 2929C 6837 2941 6868 2995 6894 3048C 6920 3101 6946 3152 6951 3160C 6956 3168 6963 3182 6966 3190C 6969 3198 6976 3212 6981 3220C 6986 3228 6993 3242 6996 3250C 6999 3258 7013 3286 7026 3311C 7039 3337 7050 3368 7050 3381C 7050 3394 7057 3414 7065 3424C 7073 3435 7080 3456 7080 3472C 7080 3487 7085 3500 7090 3500C 7096 3500 7100 3513 7100 3528C 7100 3544 7107 3565 7115 3576C 7123 3586 7130 3607 7130 3621C 7130 3635 7137 3655 7145 3666C 7153 3676 7160 3702 7160 3723C 7160 3744 7167 3768 7175 3776C 7186 3787 7190 3813 7190 3864C 7190 3917 7194 3941 7205 3950C 7216 3959 7220 3982 7220 4029C 7221 4071 7226 4102 7235 4114C 7257 4143 7257 4657 7235 4686C 7226 4698 7221 4729 7220 4771C 7220 4818 7216 4841 7205 4850C 7194 4859 7190 4883 7190 4940C 7190 4997 7186 5021 7175 5030C 7167 5037 7160 5059 7160 5079C 7160 5100 7153 5125 7145 5136C 7137 5146 7130 5166 7130 5180C 7130 5194 7123 5214 7115 5224C 7107 5235 7100 5256 7100 5271C 7100 5285 7094 5303 7086 5310C 7078 5316 7074 5328 7077 5335C 7079 5343 7075 5364 7066 5381C 7057 5399 7050 5419 7050 5425C 7050 5440 6997 5553 6960 5618C 6954 5627 6947 5642 6944 5650C 6919 5710 6846 5847 6825 5871C 6811 5888 6800 5907 6800 5914C 6800 5921 6787 5939 6770 5955C 6754 5971 6740 5989 6740 5996C 6740 6003 6722 6028 6700 6051C 6678 6074 6660 6099 6660 6106C 6660 6113 6644 6134 6625 6153C 6606 6172 6590 6193 6590 6200C 6590 6219 6274 6536 6225 6567C 6203 6581 6173 6605 6158 6621C 6143 6637 6124 6650 6115 6650C 6105 6650 6077 6670 6052 6695C 6027 6720 6001 6740 5995 6740C 5988 6740 5975 6749 5966 6759C 5956 6770 5923 6791 5892 6806C 5860 6821 5828 6839 5819 6847C 5788 6873 5509 7010 5486 7010C 5473 7010 5457 7017 5450 7025C 5443 7033 5423 7040 5405 7040C 5387 7040 5367 7047 5360 7055C 5353 7063 5340 7070 5330 7070C 5320 7070 5307 7077 5300 7085C 5293 7093 5276 7100 5261 7100C 5247 7100 5226 7107 5216 7115C 5205 7123 5182 7130 5164 7130C 5147 7130 5119 7137 5104 7145C 5088 7153 5058 7160 5038 7160C 5018 7160 4998 7165 4995 7170C 4992 7176 4961 7180 4927 7180C 4892 7180 4853 7187 4836 7195C 4818 7205 4779 7210 4730 7210C 4673 7210 4649 7214 4640 7225C 4622 7247 4125 7247 4096 7225zM4670 7085C 4679 7074 4702 7070 4749 7070C 4793 7070 4823 7065 4836 7055C 4847 7047 4878 7041 4911 7040C 4949 7040 4972 7035 4980 7025C 4987 7016 5009 7010 5035 7010C 5061 7010 5083 7004 5090 6995C 5097 6987 5118 6980 5138 6980C 5177 6980 5228 6966 5273 6944C 5289 6936 5312 6930 5325 6930C 5337 6930 5353 6923 5360 6915C 5367 6907 5381 6900 5391 6900C 5401 6900 5412 6896 5415 6890C 5418 6885 5433 6880 5448 6880C 5463 6880 5509 6862 5550 6840C 5591 6818 5630 6800 5636 6800C 5642 6800 5653 6793 5660 6785C 5667 6777 5680 6770 5689 6770C 5699 6770 5719 6757 5735 6740C 5751 6724 5771 6710 5781 6710C 5790 6710 5803 6703 5810 6695C 5817 6687 5830 6680 5839 6680C 5848 6680 5868 6666 5884 6650C 5900 6633 5918 6620 5925 6620C 5931 6620 5951 6604 5970 6585C 5989 6566 6010 6550 6017 6550C 6025 6550 6060 6523 6095 6490C 6130 6457 6165 6430 6172 6430C 6189 6430 6440 6179 6440 6162C 6440 6154 6467 6120 6500 6086C 6533 6051 6560 6018 6560 6012C 6560 6006 6576 5984 6596 5963C 6616 5942 6636 5913 6642 5898C 6647 5882 6656 5870 6661 5870C 6666 5870 6683 5842 6699 5808C 6715 5773 6737 5736 6749 5726C 6760 5715 6770 5698 6770 5688C 6770 5678 6777 5667 6785 5664C 6793 5660 6800 5647 6800 5634C 6800 5620 6807 5607 6815 5604C 6823 5600 6830 5592 6830 5584C 6830 5577 6850 5533 6875 5487C 6900 5440 6920 5393 6920 5382C 6920 5371 6925 5358 6930 5355C 6936 5352 6940 5334 6940 5316C 6940 5297 6947 5277 6955 5270C 6963 5263 6970 5246 6970 5233C 6970 5219 6976 5196 6984 5182C 7006 5139 7020 5086 7020 5048C 7020 5028 7027 5007 7035 5000C 7045 4992 7050 4969 7050 4931C 7051 4898 7057 4867 7065 4856C 7075 4842 7080 4811 7080 4753C 7080 4704 7084 4670 7090 4670C 7096 4670 7100 4570 7100 4391C 7100 4215 7096 4109 7090 4105C 7085 4102 7080 4061 7080 4016C 7080 3954 7076 3929 7065 3920C 7055 3912 7050 3889 7050 3851C 7050 3819 7044 3786 7036 3775C 7029 3764 7020 3737 7017 3715C 7003 3623 6997 3600 6984 3589C 6976 3583 6970 3563 6970 3545C 6970 3527 6963 3507 6955 3500C 6947 3493 6940 3478 6940 3467C 6940 3428 6889 3297 6869 3285C 6864 3281 6860 3271 6860 3261C 6860 3251 6853 3237 6845 3230C 6837 3223 6830 3210 6830 3200C 6830 3190 6823 3177 6815 3170C 6807 3163 6800 3150 6800 3140C 6800 3130 6793 3117 6785 3110C 6777 3103 6770 3090 6770 3081C 6770 3072 6761 3057 6750 3048C 6740 3038 6717 3004 6701 2972C 6685 2940 6665 2908 6656 2901C 6647 2893 6640 2881 6640 2872C 6640 2864 6620 2835 6595 2809C 6570 2783 6550 2755 6550 2747C 6550 2740 6534 2718 6514 2699C 6494 2681 6475 2657 6471 2648C 6463 2626 6150 2310 6137 2310C 6132 2310 6108 2292 6084 2270C 6060 2248 6035 2230 6027 2230C 6020 2230 5996 2212 5975 2190C 5954 2168 5930 2150 5923 2150C 5916 2150 5895 2136 5877 2120C 5858 2103 5835 2090 5826 2090C 5817 2090 5810 2086 5810 2080C 5810 2075 5798 2067 5784 2064C 5770 2060 5745 2044 5729 2029C 5713 2013 5694 2000 5687 2000C 5680 2000 5631 1978 5577 1950C 5523 1923 5469 1900 5456 1900C 5443 1900 5427 1893 5420 1885C 5413 1877 5400 1870 5391 1870C 5382 1870 5369 1865 5363 1859C 5358 1854 5338 1847 5320 1845C 5301 1842 5282 1836 5276 1830C 5271 1825 5257 1820 5245 1820C 5233 1820 5215 1813 5204 1805C 5194 1797 5173 1790 5159 1790C 5144 1790 5127 1783 5120 1775C 5112 1766 5090 1760 5060 1760C 5030 1760 5008 1754 5000 1745C 4991 1734 4968 1730 4921 1730C 4877 1730 4847 1725 4834 1715C 4822 1706 4790 1701 4744 1700C 4690 1700 4671 1696 4666 1685C 4658 1663 4119 1663 4100 1685C 4091 1696 4067 1700 4008 1700C 3947 1700 3928 1703 3924 1715C 3919 1726 3902 1730 3861 1730C 3826 1730 3796 1736 3784 1745C 3774 1753 3746 1760 3724 1760C 3700 1760 3677 1766 3670 1775C 3663 1784 3641 1790 3615 1790C 3589 1790 3567 1796 3560 1805C 3553 1813 3533 1820 3515 1820C 3497 1820 3477 1827 3470 1835C 3463 1843 3446 1850 3431 1850C 3417 1850 3385 1861 3361 1875C 3338 1889 3310 1900 3301 1900C 3277 1900 3020 2027 3020 2039C 3020 2045 3009 2052 2995 2056C 2982 2059 2966 2068 2959 2076C 2953 2084 2940 2090 2931 2090C 2921 2090 2901 2103 2885 2120C 2869 2136 2850 2150 2842 2150C 2834 2150 2805 2170 2779 2195C 2753 2220 2725 2240 2717 2240C 2710 2240 2688 2256 2669 2276C 2651 2296 2617 2324 2595 2338C 2543 2371 2338 2576 2317 2615C 2309 2632 2281 2665 2256 2690C 2231 2714 2210 2741 2210 2750C 2210 2759 2190 2786 2165 2810C 2140 2834 2120 2861 2120 2870C 2120 2879 2106 2899 2090 2915C 2073 2931 2060 2950 2060 2957C 2060 2964 2048 2989 2032 3012C 1991 3074 1960 3132 1960 3145C 1960 3152 1953 3163 1945 3170C 1937 3177 1930 3190 1930 3200C 1930 3210 1924 3223 1917 3229C 1909 3235 1898 3259 1891 3282C 1875 3336 1842 3408 1829 3415C 1824 3419 1820 3436 1820 3454C 1820 3473 1813 3493 1805 3500C 1797 3507 1790 3527 1790 3545C 1790 3563 1783 3583 1775 3590C 1766 3597 1760 3620 1760 3644C 1760 3666 1753 3694 1745 3704C 1737 3715 1730 3731 1730 3741C 1730 3750 1723 3771 1715 3786C 1706 3803 1700 3842 1700 3883C 1700 3921 1696 3950 1690 3950C 1684 3950 1680 3984 1680 4033C 1680 4091 1675 4122 1665 4136C 1644 4164 1644 4666 1665 4694C 1675 4707 1680 4737 1680 4781C 1680 4818 1685 4852 1690 4855C 1696 4858 1700 4887 1700 4919C 1700 4959 1705 4982 1715 4990C 1724 4997 1730 5020 1730 5044C 1730 5066 1737 5094 1745 5104C 1753 5115 1760 5140 1760 5161C 1760 5181 1767 5203 1775 5210C 1783 5217 1790 5233 1790 5245C 1790 5258 1797 5270 1805 5274C 1814 5277 1820 5292 1820 5313C 1820 5332 1827 5353 1835 5360C 1843 5367 1850 5383 1850 5395C 1850 5422 2023 5771 2045 5790C 2053 5797 2060 5808 2060 5814C 2060 5821 2074 5842 2090 5860C 2107 5878 2120 5899 2120 5905C 2120 5912 2140 5937 2165 5962C 2190 5987 2210 6016 2210 6025C 2210 6034 2221 6051 2234 6061C 2248 6072 2269 6097 2281 6118C 2310 6167 2580 6440 2600 6440C 2609 6440 2638 6463 2665 6490C 2692 6518 2720 6540 2726 6540C 2733 6540 2757 6558 2780 6580C 2803 6602 2829 6620 2839 6620C 2848 6620 2867 6633 2880 6650C 2894 6666 2912 6679 2921 6680C 2930 6680 2943 6687 2950 6695C 2957 6703 2970 6710 2980 6710C 2989 6710 3005 6719 3015 6730C 3035 6752 3157 6820 3176 6820C 3182 6820 3193 6827 3200 6835C 3207 6843 3227 6850 3245 6850C 3263 6850 3283 6856 3289 6863C 3295 6871 3319 6882 3342 6889C 3366 6896 3412 6915 3446 6931C 3480 6947 3519 6960 3534 6960C 3548 6960 3560 6965 3560 6970C 3560 6976 3579 6980 3603 6980C 3627 6980 3655 6987 3666 6995C 3676 7003 3701 7010 3721 7010C 3740 7010 3765 7017 3776 7025C 3787 7033 3818 7039 3851 7040C 3889 7040 3912 7045 3920 7055C 3929 7066 3954 7070 4020 7070C 4086 7070 4111 7074 4120 7085C 4130 7098 4174 7100 4395 7100C 4616 7100 4660 7098 4670 7085z" stroke="none" fill="#FDCF2B" fill-rule="nonzero" />
        <path d="M5416 6475C 5405 6467 5386 6460 5374 6460C 5281 6460 5060 6251 5060 6163C 5060 6152 5053 6137 5045 6130C 5037 6123 5030 6111 5030 6103C 5030 6095 5023 6082 5015 6074C 5006 6065 5000 6040 5000 6016C 5000 5989 4994 5968 4985 5960C 4975 5952 4970 5929 4970 5891C 4969 5857 4963 5827 4954 5815C 4944 5801 4940 5775 4941 5732C 4942 5695 4938 5664 4932 5658C 4925 5651 4920 5614 4920 5570C 4920 5523 4914 5484 4905 5466C 4897 5451 4890 5423 4890 5406C 4890 5388 4883 5365 4875 5354C 4866 5342 4861 5310 4860 5263C 4860 5224 4856 5188 4850 5185C 4845 5182 4840 5155 4840 5127C 4840 5097 4833 5067 4825 5056C 4817 5045 4810 5024 4810 5010C 4810 4996 4804 4978 4798 4972C 4791 4965 4782 4931 4778 4897C 4764 4779 4755 4737 4743 4732C 4736 4730 4730 4735 4730 4743C 4730 4751 4723 4763 4715 4770C 4706 4777 4700 4799 4700 4825C 4700 4851 4694 4873 4685 4880C 4677 4887 4670 4907 4670 4925C 4670 4943 4663 4963 4655 4970C 4647 4977 4640 4997 4640 5015C 4640 5033 4633 5053 4625 5060C 4617 5067 4610 5078 4610 5084C 4610 5091 4599 5107 4585 5120C 4571 5133 4560 5155 4560 5169C 4560 5183 4553 5204 4545 5214C 4537 5225 4530 5246 4530 5260C 4530 5275 4521 5295 4510 5305C 4492 5322 4400 5499 4400 5518C 4400 5523 4393 5533 4385 5540C 4377 5547 4370 5560 4370 5570C 4370 5580 4363 5593 4355 5600C 4347 5607 4340 5621 4340 5632C 4340 5642 4333 5653 4325 5656C 4315 5660 4310 5676 4310 5700C 4310 5722 4306 5741 4301 5744C 4287 5753 4220 5889 4220 5909C 4220 5919 4212 5934 4202 5943C 4176 5967 3909 5968 3890 5945C 3883 5937 3871 5930 3863 5930C 3854 5930 3832 5917 3813 5900C 3795 5884 3774 5870 3767 5870C 3760 5870 3747 5861 3737 5850C 3728 5839 3715 5830 3708 5830C 3685 5829 3560 5705 3560 5683C 3560 5671 3553 5660 3545 5656C 3536 5653 3530 5638 3530 5617C 3530 5594 3522 5576 3505 5560C 3483 5540 3480 5528 3480 5470C 3480 5427 3475 5397 3465 5384C 3457 5374 3450 5346 3450 5324C 3450 5301 3444 5277 3436 5271C 3428 5264 3419 5232 3416 5197C 3401 5033 3397 5010 3384 4999C 3375 4992 3370 4968 3370 4933C 3370 4903 3364 4866 3356 4852C 3331 4802 3320 4754 3320 4686C 3320 4636 3316 4618 3305 4614C 3294 4609 3290 4590 3290 4536C 3289 4490 3284 4458 3275 4446C 3267 4435 3260 4407 3260 4384C 3260 4356 3255 4340 3245 4336C 3234 4332 3230 4316 3230 4282C 3230 4250 3225 4228 3215 4220C 3206 4213 3200 4191 3200 4166C 3200 4143 3193 4115 3185 4104C 3177 4094 3170 4064 3170 4039C 3170 4013 3163 3979 3155 3964C 3147 3948 3140 3911 3140 3883C 3140 3854 3136 3830 3130 3830C 3125 3830 3120 3817 3120 3802C 3120 3786 3113 3765 3105 3754C 3096 3742 3091 3711 3090 3669C 3090 3628 3085 3597 3075 3584C 3066 3572 3061 3540 3060 3493C 3060 3454 3056 3418 3050 3415C 3045 3412 3040 3394 3040 3376C 3040 3357 3033 3329 3025 3314C 3017 3298 3010 3276 3010 3265C 3010 3254 3003 3236 2995 3226C 2986 3214 2980 3184 2980 3149C 2980 3117 2976 3088 2970 3085C 2965 3082 2960 3055 2960 3026C 2960 2991 2955 2968 2945 2960C 2934 2951 2930 2925 2930 2855C 2930 2785 2934 2759 2945 2750C 2953 2743 2960 2725 2960 2709C 2960 2693 2968 2667 2979 2650C 3004 2608 3129 2480 3145 2480C 3152 2480 3163 2473 3170 2465C 3177 2457 3193 2450 3205 2450C 3218 2450 3230 2443 3234 2435C 3238 2423 3264 2420 3378 2420C 3510 2420 3518 2421 3538 2443C 3551 2457 3560 2479 3560 2498C 3560 2518 3566 2533 3575 2536C 3584 2540 3590 2555 3590 2575C 3590 2593 3597 2613 3605 2620C 3615 2628 3620 2651 3620 2690C 3620 2729 3625 2752 3635 2760C 3644 2768 3650 2790 3650 2820C 3650 2852 3655 2870 3664 2873C 3673 2877 3680 2901 3684 2942C 3694 3056 3702 3099 3716 3111C 3724 3118 3730 3141 3730 3170C 3730 3199 3736 3222 3744 3229C 3752 3236 3761 3267 3764 3298C 3776 3427 3783 3460 3796 3471C 3804 3478 3810 3501 3810 3530C 3810 3560 3816 3582 3825 3590C 3835 3598 3840 3621 3840 3656C 3840 3685 3845 3712 3850 3715C 3856 3718 3860 3743 3860 3769C 3860 3800 3865 3822 3875 3830C 3884 3837 3890 3859 3890 3885C 3890 3911 3896 3933 3905 3940C 3914 3947 3920 3970 3920 3994C 3920 4016 3927 4044 3935 4054C 3943 4065 3950 4093 3950 4116C 3950 4144 3955 4160 3965 4164C 3976 4168 3980 4184 3980 4218C 3980 4250 3985 4272 3995 4280C 4005 4288 4010 4311 4010 4346C 4010 4375 4014 4401 4018 4404C 4029 4411 4060 4346 4060 4316C 4060 4303 4067 4287 4075 4280C 4083 4273 4090 4260 4090 4250C 4090 4240 4097 4227 4105 4220C 4113 4213 4120 4201 4120 4194C 4120 4186 4124 4172 4129 4162C 4135 4153 4141 4133 4144 4118C 4148 4103 4157 4084 4166 4075C 4192 4049 4220 3989 4220 3959C 4220 3941 4230 3923 4250 3907C 4267 3893 4280 3872 4280 3860C 4280 3849 4287 3837 4295 3834C 4304 3830 4310 3815 4310 3795C 4310 3776 4314 3759 4319 3756C 4333 3747 4370 3666 4370 3644C 4370 3633 4381 3613 4395 3600C 4409 3587 4420 3566 4420 3554C 4420 3509 4465 3444 4557 3353C 4609 3302 4658 3260 4665 3260C 4673 3260 4692 3247 4707 3230C 4724 3211 4743 3200 4760 3200C 4774 3200 4795 3193 4806 3185C 4821 3174 4862 3171 4997 3170C 5091 3170 5175 3173 5184 3176C 5194 3180 5200 3194 5200 3211C 5200 3227 5204 3248 5209 3258C 5234 3309 5244 3353 5248 3432C 5250 3491 5256 3522 5266 3531C 5275 3538 5280 3562 5280 3601C 5280 3633 5285 3662 5290 3665C 5296 3668 5300 3697 5300 3729C 5300 3769 5305 3792 5315 3800C 5326 3809 5330 3834 5330 3894C 5330 3951 5335 3982 5345 3996C 5353 4006 5360 4034 5360 4056C 5360 4080 5366 4103 5375 4110C 5385 4118 5390 4141 5390 4180C 5390 4219 5395 4242 5405 4250C 5416 4259 5420 4284 5420 4344C 5420 4401 5425 4432 5435 4446C 5444 4458 5449 4490 5450 4536C 5450 4589 5454 4609 5464 4613C 5474 4617 5480 4643 5484 4697C 5500 4910 5502 4929 5516 4941C 5525 4948 5530 4972 5530 5004C 5530 5032 5537 5068 5545 5084C 5555 5103 5560 5142 5560 5206C 5560 5262 5564 5300 5570 5300C 5576 5300 5580 5338 5580 5394C 5580 5458 5585 5497 5595 5516C 5604 5533 5610 5572 5610 5611C 5610 5656 5615 5681 5624 5689C 5638 5701 5645 5749 5656 5903C 5660 5958 5666 5983 5676 5987C 5686 5991 5690 6009 5690 6049C 5690 6084 5696 6114 5705 6126C 5714 6138 5719 6169 5720 6211C 5720 6258 5724 6281 5735 6290C 5746 6299 5750 6323 5750 6376C 5750 6486 5743 6490 5571 6490C 5467 6489 5430 6486 5416 6475z" stroke="none" fill="#FDCF2B" fill-rule="nonzero" />
	</g>
</g>
</svg>